# Blender v2.79 (sub 0) OBJ File: 'aHatsuneMikuDivaBlank.blend'
# www.blender.org
mtllib Dorumon.mtl
o Dorumon_DorumonMesh
v -3.725602 4.313539 2.801809
v -3.826410 4.326005 2.424888
v -3.692375 4.337461 2.815782
v -3.510299 4.505950 2.571994
v -3.596714 4.304988 2.022615
v -3.237654 4.493092 2.227444
v -3.278969 4.430416 2.678445
v -2.975879 4.427882 2.422988
v -2.928737 4.160144 2.552656
v -3.320814 4.215682 2.797250
v -3.093637 3.776668 2.543324
v -3.389960 3.919154 2.726954
v -3.586992 3.999502 2.890896
v -3.702785 4.080779 2.888253
v -3.887988 4.079576 2.721313
v -3.899692 4.038764 2.713013
v -3.900652 3.943538 2.378492
v -3.678174 3.858399 2.009074
v -3.774854 3.715954 2.432629
v -3.575812 3.563508 2.125592
v -3.363491 3.533762 2.337142
v -3.640676 3.754832 2.638691
v 3.812395 4.319633 2.757580
v 3.778624 4.340319 2.774993
v 3.881570 4.352660 2.374812
v 3.565133 4.501530 2.552719
v 3.622890 4.326484 1.990854
v 3.267734 4.478104 2.229888
v 3.349609 4.404084 2.673570
v 3.028249 4.385539 2.442242
v 2.644046 4.322671 2.073043
v 2.563768 4.046008 2.168102
v 2.302112 4.222539 1.622412
v 2.228911 4.010118 1.734653
v 2.734362 3.597680 2.126666
v 3.012589 4.110727 2.564524
v 3.417387 4.189618 2.780278
v 3.205589 3.742336 2.527490
v 3.476258 3.528965 2.291806
v 3.758522 3.761595 2.579631
v 3.878474 3.740515 2.362505
v 3.668083 3.582736 2.065907
v 3.737551 3.888622 1.953553
v 3.981447 3.979180 2.307855
v 3.999729 4.062899 2.644945
v 3.985580 4.102335 2.655717
v 3.814739 4.083058 2.836305
v 3.706208 3.992656 2.844636
v 3.503599 3.902129 2.693279
v 0.957258 6.918400 0.822702
v 1.021677 6.807651 0.197399
v 0.759163 7.358185 0.656790
v 0.884357 7.206138 0.118072
v 1.229946 6.922167 -1.295675
v 0.926846 7.474702 0.083588
v 0.867791 7.514114 0.634287
v 0.743393 7.459791 1.245621
v 1.138116 7.580614 0.661892
v 1.184947 7.507924 0.060150
v 1.419394 7.265948 0.179419
v 1.349952 7.295450 0.763892
v 1.020087 7.501915 1.278495
v 0.910516 7.379211 1.938128
v 0.536877 7.392605 1.958411
v 0.471033 7.466861 1.248982
v 0.500538 7.480266 -0.012442
v 0.495707 7.148999 0.528886
v 0.271367 7.376069 0.664817
v 0.000000 7.472647 1.251731
v 0.000000 7.531558 -0.256064
v 0.000000 7.181693 0.507426
v -0.271367 7.376069 0.664817
v -0.471033 7.466861 1.248982
v -0.500538 7.480266 -0.012442
v -0.495707 7.148999 0.528886
v -0.759163 7.358185 0.656790
v -0.743393 7.459791 1.245621
v -0.536877 7.392605 1.958411
v 0.000000 7.424531 1.976062
v 0.000000 7.230563 2.508710
v -0.534384 7.196300 2.486999
v -0.910516 7.379211 1.938128
v -1.020087 7.501915 1.278495
v -1.138116 7.580614 0.661892
v -0.867791 7.514114 0.634287
v -0.926846 7.474702 0.083588
v -1.184947 7.507924 0.060150
v -1.419394 7.265948 0.179419
v -1.229946 6.922167 -1.295675
v -0.884357 7.206138 0.118072
v -1.021677 6.807651 0.197399
v -0.957258 6.918400 0.822702
v 0.000000 6.692674 0.180778
v 1.031652 6.619022 0.524142
v 1.246103 6.818463 0.098893
v 1.171153 6.734835 1.017793
v 1.182967 7.261588 1.219406
v 1.079961 7.288549 0.739368
v 1.138506 7.239851 0.134264
v 1.101510 7.178902 1.851337
v 0.868534 6.921381 2.433890
v 1.190585 6.670014 1.494620
v 1.210722 6.309197 1.461882
v 1.186277 6.375833 0.925222
v 1.227751 6.402880 0.065478
v 0.994527 6.158536 0.507016
v 0.570588 6.157951 0.299797
v 0.509546 5.781405 0.463828
v 0.000000 5.795060 0.273062
v 0.000000 5.566540 0.442237
v -0.509546 5.781405 0.463828
v -0.570588 6.157951 0.299797
v 0.000000 6.184266 0.118671
v 0.559290 6.669642 0.361491
v -0.559290 6.669642 0.361491
v -1.031652 6.619022 0.524142
v -0.994527 6.158536 0.507016
v -0.894007 5.802807 0.712395
v -0.429042 5.524946 0.520894
v -0.398053 5.407813 0.518171
v -0.690272 5.464190 0.824323
v -0.979836 5.544960 1.053417
v -0.778020 5.283417 1.298831
v -1.098395 5.157121 0.937470
v -1.115553 5.474265 1.286435
v -1.100347 5.738670 0.981279
v -1.170303 5.471126 0.556870
v -1.138276 6.010611 0.863204
v -1.170472 5.921515 1.452308
v -1.065134 5.702462 2.132372
v -0.765479 5.175426 1.986589
v -0.411488 5.030118 1.590313
v -0.632461 4.831550 1.228209
v -0.720541 5.035702 0.982728
v -0.567399 5.135299 0.865590
v -0.430401 5.139024 0.243417
v 0.000000 5.481784 0.402909
v 0.398053 5.407813 0.518171
v 0.429042 5.524947 0.520894
v 0.894007 5.802807 0.712395
v 1.220402 5.841759 0.228619
v 1.138276 6.010611 0.863204
v 1.170472 5.921515 1.452308
v 1.058442 6.220305 2.228229
v 1.014205 6.508934 2.314029
v 0.884803 6.299152 2.903483
v 0.900686 5.720765 2.780289
v 1.063399 5.909863 2.095840
v 1.065134 5.702462 2.132372
v 1.115553 5.474265 1.286435
v 1.100347 5.738670 0.981279
v -0.382913 5.069876 0.054956
v 0.000000 5.123503 -0.050989
v 0.382913 5.069876 0.054956
v 0.000000 4.778260 -0.125738
v -0.447457 4.696393 0.110707
v -0.583119 4.350009 -0.403858
v -0.801003 4.375441 0.213199
v -0.944987 4.764070 0.490974
v -0.542485 4.962204 0.231567
v -0.924299 5.046235 0.627859
v -0.967635 4.852443 0.989321
v -0.842205 4.604336 1.278986
v -0.354459 4.710353 1.410187
v 0.000000 4.925484 1.925192
v 0.000000 4.960086 2.386733
v 0.765479 5.175426 1.986589
v 0.588749 5.088627 2.529690
v 0.751621 5.412228 2.736685
v 0.386575 4.898446 2.980012
v 0.532255 5.233157 3.232863
v 0.000000 4.822186 3.077335
v 0.000000 5.166370 3.331394
v -0.532255 5.233157 3.232863
v -0.386575 4.898446 2.980012
v -0.751621 5.412228 2.736685
v -0.588749 5.088627 2.529691
v 0.778020 5.283417 1.298831
v 0.411488 5.030118 1.590313
v 0.354459 4.710353 1.410187
v 0.000000 4.611580 1.589806
v -0.432805 4.262745 1.557130
v -0.975100 4.220909 1.225477
v -1.151991 4.510034 0.832872
v -0.988749 4.091183 0.482102
v -0.885106 3.758285 0.963299
v -1.032909 3.539972 0.690629
v -0.560856 3.163485 1.055501
v -0.516692 3.581824 1.044478
v -0.475762 3.743970 1.366418
v 0.000000 3.897799 1.488752
v 0.000000 4.318348 1.539115
v 0.432805 4.262745 1.557130
v 0.475762 3.743970 1.366419
v 0.000000 3.520125 1.176948
v 0.000000 3.117066 1.170473
v 0.000000 2.603928 1.040596
v -0.624510 2.675179 0.908589
v -1.129094 2.957031 0.419811
v -1.322745 3.241377 -0.171455
v -1.175149 3.789672 0.158899
v -0.978387 4.138663 -0.207623
v -1.020978 3.447791 -0.737121
v 0.842205 4.604336 1.278985
v 0.975100 4.220909 1.225477
v 0.885106 3.758285 0.963299
v 0.516692 3.581824 1.044478
v 0.560857 3.163485 1.055501
v 0.624510 2.675180 0.908589
v 0.000000 2.189943 0.427684
v -0.584963 2.370783 0.208645
v -1.066033 2.714613 -0.463810
v -0.337011 2.676051 -1.022634
v -0.209620 2.953075 -1.157781
v -0.618633 3.626192 -0.942092
v 0.000000 4.459270 -0.564076
v 0.583119 4.350009 -0.403859
v 0.447457 4.696393 0.110707
v 1.032909 3.539972 0.690630
v 1.129094 2.957031 0.419811
v 0.584963 2.370783 0.208645
v 0.453723 2.320017 -0.446947
v 1.066033 2.714613 -0.463810
v 1.317660 3.241377 -0.171455
v 1.175149 3.789672 0.158899
v 0.978387 4.138663 -0.207623
v 0.801003 4.375441 0.213199
v 0.988749 4.091183 0.482102
v 1.151991 4.510034 0.832872
v 0.944987 4.764069 0.490973
v 1.021154 3.447791 -0.737121
v 0.337011 2.676051 -1.022634
v 0.241496 2.464552 -0.951330
v 0.000000 2.286434 -0.932722
v 0.000000 2.160064 -0.524551
v -0.453723 2.320017 -0.446947
v -0.241496 2.464552 -0.951330
v -0.328559 2.321158 -1.673372
v -0.464653 2.652680 -1.686555
v -0.328559 2.977747 -1.699776
v 0.000000 3.140473 -1.272902
v 0.000000 3.780599 -1.055463
v 0.618809 3.626192 -0.942093
v 0.209620 2.953074 -1.157781
v 0.464653 2.652680 -1.686555
v 0.328559 2.321158 -1.673372
v 0.000000 2.185175 -1.667904
v -0.516221 2.500786 -2.713843
v -0.730046 2.898170 -2.509336
v -0.516221 3.295552 -2.304832
v 0.000000 3.113730 -1.705243
v 0.328559 2.977747 -1.699776
v 0.730046 2.898170 -2.509336
v 0.516221 2.500786 -2.713843
v 0.000000 2.336185 -2.798551
v 0.000000 2.523319 -3.755471
v 0.560067 2.751616 -3.620770
v 0.540560 3.399648 -4.570994
v 0.916811 3.319685 -3.328425
v 0.516221 3.295552 -2.304832
v 0.000000 3.460151 -2.220124
v 0.000000 4.130061 -2.928597
v 0.560067 3.887755 -3.036081
v 0.540560 4.156563 -3.534339
v 0.000000 4.326015 -3.328907
v -0.540560 4.156563 -3.534339
v -0.560067 3.887755 -3.036081
v -0.916811 3.319685 -3.328427
v -0.886887 3.778106 -4.052667
v -0.459849 4.997860 -4.352671
v 0.000000 5.100289 -4.181681
v 0.459849 4.997860 -4.352671
v 0.705714 4.715274 -4.739695
v 0.886887 3.778105 -4.052667
v 0.459849 4.432689 -5.126724
v 0.000000 3.255577 -4.794954
v -0.540560 3.399648 -4.570994
v -0.560067 2.751617 -3.620770
v -0.705714 4.715274 -4.739695
v 0.000000 5.804040 -5.531928
v 0.000000 4.301012 -5.276359
v -0.459849 4.432689 -5.126724
v 0.542485 4.962204 0.231567
v 0.430401 5.139024 0.243417
v 0.924299 5.046234 0.627858
v 0.967635 4.852443 0.989321
v 0.632461 4.831550 1.228209
v 0.720541 5.035702 0.982728
v 0.567399 5.135300 0.865591
v -1.063399 5.909864 2.095840
v -1.058442 6.220305 2.228229
v -0.900686 5.720766 2.780290
v -0.884803 6.299152 2.903483
v -0.695652 5.699292 3.473756
v -0.649733 5.522849 3.367530
v 0.000000 5.479744 3.617966
v 0.000000 5.709029 3.745660
v 0.695652 5.699291 3.473755
v 0.649733 5.522849 3.367530
v 0.666074 6.085854 3.646363
v 0.000000 6.173673 3.901458
v 0.650319 6.541800 3.677274
v 0.769286 6.743350 3.012383
v 0.568428 6.940811 3.056732
v 0.000000 6.590028 3.856276
v -0.650319 6.541800 3.677274
v -0.568428 6.940811 3.056732
v -0.769286 6.743350 3.012383
v -0.868534 6.921381 2.433890
v -0.696736 7.131176 2.477746
v -1.101510 7.178902 1.851337
v -1.182967 7.261588 1.219406
v -1.349952 7.295450 0.763892
v -1.079961 7.288549 0.739368
v -1.138506 7.239851 0.134264
v -1.246103 6.818463 0.098893
v -1.171153 6.734835 1.017793
v -1.186277 6.375833 0.925222
v -1.227751 6.402880 0.065478
v -1.220402 5.841759 0.228619
v -1.210722 6.309197 1.461882
v -1.190585 6.670014 1.494620
v -1.014205 6.508934 2.314029
v 0.000000 6.966867 3.084550
v 0.534383 7.196300 2.486999
v 0.696736 7.131176 2.477746
v -0.666074 6.085854 3.646363
v 0.690272 5.464190 0.824323
v 0.979836 5.544960 1.053417
v 1.098395 5.157121 0.937470
v 1.170303 5.471126 0.556870
v 3.299130 4.270611 1.610215
v 2.940663 4.440080 1.864190
v 2.564643 4.358775 1.432077
v 2.158866 4.286705 1.003161
v 1.902247 4.142122 1.192864
v 1.927001 3.821733 1.221951
v 1.707963 4.106940 0.919733
v 1.923509 4.159354 0.762807
v 2.281576 4.073155 0.534142
v 2.538192 4.147325 0.757343
v 2.907152 4.204689 1.175653
v 3.396861 3.814264 1.547633
v 3.267029 3.468057 1.640753
v 3.048027 3.381698 1.832074
v 2.676045 3.396738 1.424386
v 2.390530 3.568795 1.688265
v 2.030517 3.543191 1.220062
v 1.809688 3.555043 0.878391
v 2.085488 3.870407 1.062203
v 2.130707 4.044292 0.826459
v 2.171641 4.099109 0.421430
v 2.301093 3.641381 0.500801
v 2.599559 3.682159 0.697363
v 2.999814 3.761803 1.130110
v 2.860801 3.456126 1.234737
v 2.455871 3.382657 0.808703
v 2.235717 3.382964 0.553524
v 2.216554 3.424524 1.021030
v 2.117262 3.394113 0.432069
v 1.929957 3.812684 0.253268
v 1.642563 4.137086 0.169552
v 1.290390 3.846302 0.179515
v 1.721012 3.557369 0.745998
v 1.645929 4.256493 1.194664
v 1.872341 4.402184 0.825622
v 1.950996 4.446340 0.358401
v 1.140663 4.556118 0.162643
v 0.927677 4.346358 0.183245
v 0.839847 4.346542 0.787886
v 1.274784 3.868900 0.828558
v 1.240317 4.707057 1.075908
v 1.377724 4.829620 0.839511
v 1.473251 4.805562 0.380571
v 0.819402 4.943542 0.116591
v 0.545727 4.731817 0.085478
v 0.407280 4.636284 0.822308
v 0.899649 5.140142 1.096009
v 1.057563 5.218313 0.796601
v 1.099584 5.192487 0.355096
v 0.600014 5.153290 0.211153
v 0.317006 4.927567 0.238773
v 0.305164 5.124202 0.660919
v 0.587974 5.240188 1.012455
v 0.782355 5.363659 0.731780
v 0.671800 5.376073 0.430738
v -2.734362 3.597680 2.126666
v -2.563769 4.046008 2.168102
v -2.644047 4.322672 2.073044
v -2.940664 4.440080 1.864191
v -3.299130 4.270611 1.610215
v -3.396861 3.814264 1.547633
v -3.267029 3.468057 1.640753
v -3.048027 3.381698 1.832074
v -2.676045 3.396738 1.424386
v -2.390530 3.568795 1.688265
v -2.228911 4.010118 1.734653
v -2.302112 4.222539 1.622412
v -2.564643 4.358775 1.432076
v -2.907152 4.204689 1.175653
v -2.999814 3.761803 1.130110
v -2.860801 3.456126 1.234736
v -2.455871 3.382657 0.808703
v -2.216554 3.424524 1.021030
v -2.030517 3.543191 1.220062
v -1.927001 3.821733 1.221951
v -1.902247 4.142122 1.192864
v -2.158866 4.286705 1.003161
v -2.538192 4.147325 0.757343
v -2.599559 3.682159 0.697363
v -2.301093 3.641381 0.500801
v -2.235717 3.382964 0.553524
v -1.809688 3.555043 0.878391
v -1.707963 4.106940 0.919733
v -1.923509 4.159354 0.762807
v -2.281576 4.073155 0.534142
v -2.171641 4.099109 0.421430
v -2.130707 4.044292 0.826459
v -2.085488 3.870407 1.062203
v -1.721012 3.557369 0.745998
v -2.117262 3.394113 0.432069
v -1.929957 3.812684 0.253268
v -1.642563 4.137086 0.169552
v -1.290390 3.846302 0.179515
v -1.274784 3.868900 0.828558
v -0.839847 4.346542 0.787886
v -0.927677 4.346358 0.183245
v -1.140663 4.556118 0.162643
v -1.950996 4.446340 0.358401
v -1.872341 4.402184 0.825622
v -1.645929 4.256493 1.194664
v -1.240317 4.707057 1.075908
v -1.377724 4.829620 0.839511
v -1.473251 4.805562 0.380571
v -0.819402 4.943542 0.116591
v -1.099584 5.192487 0.355096
v -1.057563 5.218313 0.796601
v -0.899649 5.140142 1.096009
v -0.407280 4.636284 0.822308
v -0.545727 4.731817 0.085478
v -0.600014 5.153290 0.211153
v -0.671800 5.376073 0.430738
v -0.782355 5.363659 0.731780
v -0.587974 5.240188 1.012455
v -0.305164 5.124202 0.660919
v -0.317006 4.927567 0.238773
v -3.574391 4.323617 3.117035
v -3.579449 4.518829 3.092043
v -3.720892 4.566003 2.965389
v -3.758565 4.395631 2.923561
v -3.769704 4.237072 3.621199
v -3.955840 4.351099 2.613054
v -4.051056 4.342099 2.831293
v -3.839098 4.303276 3.001607
v -3.806114 4.105686 3.024303
v -3.974562 4.016434 3.623520
v -3.983880 4.094676 2.929836
v -3.930656 3.810317 2.940432
v -4.094561 3.776664 2.836694
v -4.153961 3.942047 2.750712
v -4.042347 4.042728 2.845935
v -4.083771 3.784570 3.465512
v 3.686457 4.307036 3.083640
v 3.848458 4.400046 2.879573
v 3.801082 4.565343 2.930835
v 3.674285 4.502739 3.066025
v 3.927467 4.219914 3.567523
v 4.023232 4.381883 2.553323
v 4.135945 4.373384 2.763083
v 3.941903 4.311963 2.947514
v 3.926324 4.111712 2.964891
v 4.096314 4.118224 2.856692
v 4.148420 4.016581 3.545431
v 4.066416 3.830300 2.860158
v 4.151777 4.073968 2.766572
v 4.262952 3.985832 2.659174
v 4.223656 3.813441 2.742898
v 4.262421 3.799645 3.370511
v 0.958648 5.890510 2.335971
v 0.848643 5.849844 2.371526
v 0.970948 5.629461 2.357647
v 0.851768 5.821450 2.490702
v 0.961772 5.862115 2.455147
v 0.884322 5.848270 2.545696
v 0.772069 5.817668 2.584190
v 0.859538 5.630847 2.561227
v 0.777442 5.779212 2.700428
v 0.889694 5.809813 2.661933
v 0.812484 5.790497 2.771277
v 0.700232 5.759894 2.809772
v 0.788294 5.569281 2.785524
v 0.705604 5.721437 2.926008
v 0.817857 5.752040 2.887514
v 0.734544 5.707465 2.980348
v 0.622292 5.676864 3.018842
v 0.710397 5.485976 2.994504
v 0.627665 5.638405 3.135079
v 0.739917 5.669007 3.096585
v 0.650714 5.612885 3.201586
v 0.533259 5.588861 3.270786
v 0.616144 5.325243 3.182871
v 0.524417 5.548606 3.356436
v 0.641871 5.571580 3.316629
v 0.468902 5.570689 3.387108
v 0.355652 5.568767 3.340314
v 0.402295 5.361547 3.342485
v 0.276863 5.543163 3.425345
v 0.390113 5.529780 3.471592
v 0.221512 5.569170 3.459124
v 0.106460 5.565358 3.417084
v 0.156081 5.358827 3.418602
v 0.031824 5.539239 3.505564
v 0.146876 5.527744 3.547058
v 0.170551 5.173212 3.140969
v 0.139321 5.119617 3.245955
v 0.114217 5.324644 3.294512
v 0.025870 5.125082 3.257901
v 0.057100 5.178675 3.152916
v 0.387954 5.222043 3.110718
v 0.356724 5.168451 3.215703
v 0.334945 5.409933 3.284010
v 0.243273 5.173916 3.227650
v 0.274503 5.227507 3.122664
v 0.556694 5.331740 2.840702
v 0.619342 5.274695 2.925777
v 0.613003 5.502566 3.025353
v 0.554943 5.251476 3.024245
v 0.492296 5.308523 2.939171
v 0.635579 5.397775 2.663592
v 0.698226 5.340731 2.748667
v 0.682728 5.534814 2.833368
v 0.633828 5.317513 2.847137
v 0.571180 5.374557 2.762062
v 0.465797 5.291230 2.943645
v 0.554739 5.203074 3.041243
v 0.530632 5.545774 3.269539
v 0.457186 5.150497 3.153848
v 0.368243 5.238652 3.056251
v 0.708376 5.478150 2.469074
v 0.772110 5.418644 2.551490
v 0.753388 5.605922 2.642917
v 0.708376 5.390262 2.649101
v 0.644641 5.449769 2.566685
v 0.775613 5.582767 2.274134
v 0.839287 5.515886 2.350746
v 0.818492 5.684289 2.452616
v 0.775613 5.479075 2.445547
v 0.764615 5.542819 2.387789
v 0.835454 5.631133 2.027752
v 0.886712 5.556427 2.138051
v 1.098729 5.905645 2.281168
v 0.830348 5.548463 2.268624
v 0.779089 5.623168 2.158325
v 0.761823 4.839082 -0.218426
v 0.777223 5.281339 -0.134111
v 0.785887 5.393072 0.077906
v 0.905180 5.195000 0.007510
v 1.120371 4.610753 -0.681317
v 1.261904 5.066158 -0.537185
v 1.394734 5.590489 -0.068652
v 1.376021 5.941804 -0.123342
v 1.163508 5.746522 -0.324577
v 1.559401 5.196173 -0.729531
v 2.166960 5.283432 -1.239348
v 0.000000 5.786752 1.885323
v 0.000000 6.016825 1.994176
v 0.000000 5.890287 2.767804
v 0.000000 5.605948 3.354518
v 0.000000 5.564336 1.955325
v 0.000000 5.354857 2.680871
v 0.000000 5.192984 3.111447
v -0.848643 5.849844 2.371526
v -0.958648 5.890510 2.335971
v -0.970948 5.629461 2.357647
v -0.961772 5.862115 2.455147
v -0.851768 5.821450 2.490702
v -0.772069 5.817668 2.584190
v -0.884322 5.848270 2.545696
v -0.859538 5.630847 2.561227
v -0.889694 5.809813 2.661933
v -0.777442 5.779212 2.700427
v -0.700232 5.759895 2.809772
v -0.812484 5.790497 2.771277
v -0.788294 5.569281 2.785524
v -0.817857 5.752040 2.887514
v -0.705604 5.721437 2.926008
v -0.622292 5.676864 3.018842
v -0.734544 5.707466 2.980348
v -0.710397 5.485977 2.994504
v -0.739917 5.669007 3.096585
v -0.627665 5.638405 3.135079
v -0.533259 5.588861 3.270786
v -0.650714 5.612885 3.201586
v -0.616144 5.325243 3.182871
v -0.641871 5.571580 3.316629
v -0.524417 5.548606 3.356435
v -0.355652 5.568767 3.340314
v -0.468902 5.570689 3.387108
v -0.402296 5.361547 3.342485
v -0.390113 5.529780 3.471592
v -0.276863 5.543163 3.425345
v -0.106460 5.565358 3.417084
v -0.221512 5.569170 3.459124
v -0.156081 5.358827 3.418602
v -0.146875 5.527746 3.547057
v -0.031824 5.539239 3.505564
v -0.139321 5.119617 3.245955
v -0.170551 5.173211 3.140969
v -0.114217 5.324644 3.294512
v -0.057100 5.178675 3.152916
v -0.025870 5.125082 3.257901
v -0.356724 5.168451 3.215703
v -0.387954 5.222044 3.110718
v -0.334945 5.409934 3.284010
v -0.274503 5.227507 3.122664
v -0.243273 5.173916 3.227650
v -0.619342 5.274695 2.925776
v -0.556694 5.331740 2.840701
v -0.613003 5.502566 3.025353
v -0.492296 5.308522 2.939170
v -0.554943 5.251476 3.024245
v -0.698226 5.340731 2.748667
v -0.635579 5.397776 2.663592
v -0.682728 5.534814 2.833368
v -0.571180 5.374557 2.762062
v -0.633827 5.317513 2.847137
v -0.554739 5.203074 3.041243
v -0.465797 5.291230 2.943645
v -0.530632 5.545774 3.269539
v -0.368243 5.238653 3.056251
v -0.457186 5.150497 3.153849
v -0.772110 5.418643 2.551490
v -0.708376 5.478150 2.469074
v -0.753388 5.605922 2.642917
v -0.644641 5.449769 2.566685
v -0.708376 5.390262 2.649101
v -0.839287 5.515888 2.350746
v -0.775613 5.582767 2.274134
v -0.818492 5.684289 2.452616
v -0.764615 5.542819 2.387789
v -0.775613 5.479075 2.445547
v -0.886712 5.556427 2.138051
v -0.835454 5.631133 2.027752
v -1.098729 5.905646 2.281168
v -0.779089 5.623168 2.158325
v -0.830348 5.548463 2.268624
v -0.761823 4.839082 -0.218426
v -0.777223 5.281339 -0.134111
v -0.785887 5.393072 0.077906
v -0.905180 5.195000 0.007510
v -1.120371 4.610753 -0.681317
v -1.261904 5.066158 -0.537185
v -1.394734 5.590489 -0.068652
v -1.376021 5.941804 -0.123342
v -1.163508 5.746522 -0.324577
v -1.559401 5.196173 -0.729531
v -2.166961 5.283432 -1.239348
v 2.008336 1.622650 2.015781
v 1.371557 1.273860 1.439761
v 1.314490 1.648725 1.820075
v 1.205440 1.774378 1.102118
v 0.929782 1.863944 1.387931
v 1.431408 1.666527 0.623075
v 1.100654 1.859339 0.205799
v 2.224559 1.831651 0.693890
v 1.934221 1.811864 0.742260
v 1.330044 2.067714 0.486387
v 0.950702 1.860023 0.772898
v 0.967796 1.385288 1.010363
v 1.666511 1.055444 0.993086
v 1.832584 1.250267 1.358357
v 2.108285 1.475188 1.007757
v 2.032511 1.476419 0.474633
v 1.641670 1.501111 0.172955
v 1.484806 1.843149 -0.078882
v 1.494339 1.344246 -0.131866
v 1.307953 1.071245 0.276833
v 1.371260 1.157553 0.418072
v 0.970946 1.445627 0.507497
v 0.836786 1.289852 0.196107
v 0.818795 1.788055 0.253309
v 1.105286 2.035140 0.030367
v 1.811018 1.910833 0.337365
v 0.877029 1.799740 -0.855972
v 0.483529 1.584036 -0.515021
v 0.680257 1.072975 -0.327168
v 0.838442 1.391652 -0.961850
v 1.397616 1.583999 -0.848016
v 1.367780 1.072947 -0.577628
v 0.905807 1.009622 -0.776886
v 0.746273 0.203713 0.396230
v 0.576774 0.539819 0.564703
v 0.929540 0.848904 0.741276
v 0.932533 0.842266 1.152804
v 0.531853 0.327886 1.338005
v 0.982028 0.051660 1.065036
v 1.246239 0.027775 0.157725
v 1.782477 0.203671 0.018749
v 2.053483 0.539767 0.128842
v 1.864141 0.848867 0.400808
v 1.419794 0.889894 0.634046
v 1.265325 0.488300 1.083572
v 0.997318 0.880410 1.825061
v 0.632706 0.367740 1.944484
v 0.920039 -0.030047 1.747509
v 1.414981 0.181041 1.713531
v 1.063079 0.064052 1.969516
v 0.835225 0.363031 2.131262
v 1.057818 0.686710 2.020450
v 1.417034 0.466911 1.720685
v 1.780987 0.961441 1.625531
v 1.862219 0.706271 1.848546
v 1.562815 0.363007 1.934731
v 2.022312 0.527787 2.288029
v 2.146878 0.362984 1.721961
v 2.120828 0.466883 1.464298
v 1.827184 0.488277 0.878892
v 1.556485 0.869924 1.009272
v 2.126553 0.842218 0.717832
v 2.551808 0.327804 0.600205
v 2.032145 0.051618 0.682487
v 1.506270 -0.003793 0.871527
v 1.766534 -0.030070 1.586067
v 2.117778 0.181012 1.457507
v 2.518585 -0.030111 1.165172
v 2.865317 0.367651 1.131162
v 2.509362 0.880349 1.274235
v 2.588703 0.686649 1.462761
v 2.830392 0.362951 1.404439
v 2.589867 0.063991 1.413320
v 2.347659 0.362975 1.639332
v 2.535062 0.244365 1.885793
v 2.793746 0.033819 1.972600
v 2.744938 0.515209 1.809505
v 2.949935 0.244349 1.751183
v 1.862210 0.064032 1.848592
v 2.499487 2.252829 0.987210
v 2.247475 2.593937 1.374265
v 1.941217 3.091076 0.835302
v 2.159924 2.684299 0.278661
v 1.856305 2.247875 0.081466
v 0.676507 2.235276 -0.310128
v 0.132191 2.443655 0.117275
v 0.526284 2.083108 0.770118
v 0.702451 2.652864 1.201028
v 0.295431 2.938791 0.431305
v 1.434571 3.123113 1.259175
v 1.155397 2.268239 1.730351
v 1.779304 2.611469 1.780952
v 1.336600 3.373359 0.069260
v 1.571547 3.057559 -0.261619
v 1.292466 2.628902 -0.500018
v 0.532855 2.682883 -0.466041
v 0.643914 3.290036 -0.084824
v 0.959414 3.373216 0.529105
v 1.068563 3.280903 -0.233984
v 1.355932 0.363015 2.000610
v 1.161214 0.515272 2.386443
v 0.966718 0.244429 2.473653
v 1.228715 0.033882 2.542728
v 1.370963 0.244411 2.309866
v 1.795042 0.244404 2.297957
v 2.070268 0.033861 2.419745
v 2.202694 0.244388 2.149453
v -1.314490 1.648725 1.820075
v -1.371557 1.273860 1.439761
v -2.008336 1.622650 2.015781
v -1.832584 1.250267 1.358357
v -2.108285 1.475188 1.007757
v -1.666511 1.055444 0.993086
v -0.967796 1.385288 1.010363
v -1.371260 1.157553 0.418072
v -0.970946 1.445627 0.507497
v -1.307953 1.071245 0.276833
v -1.641670 1.501111 0.172955
v -2.032511 1.476419 0.474633
v -1.934221 1.811864 0.742260
v -1.811018 1.910833 0.337365
v -1.484806 1.843149 -0.078882
v -1.494339 1.344246 -0.131866
v -1.419794 0.889894 0.634047
v -1.864141 0.848867 0.400808
v -1.827184 0.488277 0.878892
v -2.126553 0.842218 0.717832
v -2.509362 0.880349 1.274235
v -2.551808 0.327804 0.600205
v -2.053482 0.539767 0.128842
v -1.367780 1.072947 -0.577628
v -1.397616 1.583999 -0.848016
v -0.877029 1.799740 -0.855971
v -1.105286 2.035140 0.030366
v -1.330044 2.067714 0.486388
v -1.431408 1.666527 0.623076
v -2.224559 1.831651 0.693890
v -2.499487 2.252829 0.987210
v -2.247474 2.593937 1.374265
v -1.779304 2.611469 1.780952
v -1.434571 3.123113 1.259175
v -1.155397 2.268239 1.730351
v -0.929782 1.863944 1.387931
v -0.702451 2.652864 1.201028
v -0.295431 2.938791 0.431305
v -0.132191 2.443655 0.117275
v -0.526284 2.083108 0.770118
v -1.100654 1.859339 0.205799
v -0.676507 2.235276 -0.310128
v -1.856305 2.247875 0.081466
v -1.205440 1.774378 1.102118
v -0.950702 1.860023 0.772898
v -0.818795 1.788055 0.253309
v -0.483529 1.584036 -0.515021
v -0.836786 1.289852 0.196107
v -0.680257 1.072975 -0.327168
v -0.838442 1.391652 -0.961850
v -0.905807 1.009622 -0.776886
v -0.746273 0.203713 0.396230
v -0.576774 0.539819 0.564702
v -0.929540 0.848904 0.741276
v -1.265325 0.488300 1.083572
v -1.556485 0.869924 1.009272
v -1.780987 0.961441 1.625531
v -1.417034 0.466911 1.720685
v -1.862219 0.706271 1.848546
v -2.120828 0.466883 1.464298
v -2.588703 0.686649 1.462760
v -2.865317 0.367651 1.131162
v -2.518585 -0.030111 1.165172
v -2.032145 0.051618 0.682487
v -1.782477 0.203671 0.018749
v -1.246239 0.027775 0.157725
v -0.982028 0.051660 1.065036
v -0.531853 0.327886 1.338005
v -0.932533 0.842266 1.152804
v -0.997318 0.880410 1.825061
v -1.057818 0.686710 2.020450
v -1.355932 0.363015 2.000610
v -1.414981 0.181041 1.713531
v -1.063079 0.064052 1.969516
v -0.920039 -0.030047 1.747509
v -0.632706 0.367740 1.944484
v -1.766534 -0.030070 1.586067
v -1.506270 -0.003793 0.871527
v -2.117778 0.181012 1.457508
v -2.589867 0.063991 1.413320
v -2.830392 0.362951 1.404439
v -2.744938 0.515209 1.809505
v -2.949935 0.244349 1.751183
v -2.793746 0.033819 1.972600
v -2.535062 0.244365 1.885793
v -2.347659 0.362975 1.639332
v -2.146878 0.362984 1.721961
v -1.862210 0.064032 1.848592
v -1.562815 0.363007 1.934731
v -2.022312 0.527787 2.288029
v -0.835225 0.363031 2.131262
v -0.966718 0.244429 2.473653
v -1.161214 0.515272 2.386443
v -1.370963 0.244411 2.309866
v -1.228715 0.033882 2.542728
v -2.202694 0.244388 2.149453
v -2.070268 0.033861 2.419745
v -1.795042 0.244404 2.297957
v -2.159925 2.684299 0.278661
v -1.941217 3.091076 0.835302
v -1.336600 3.373359 0.069260
v -1.571547 3.057559 -0.261619
v -1.292466 2.628902 -0.500018
v -0.532855 2.682883 -0.466041
v -0.643914 3.290036 -0.084824
v -0.959414 3.373216 0.529105
v -1.068563 3.280903 -0.233984
vt 0.202826 -0.019923
vt 0.146022 -0.022095
vt 0.199651 -0.067643
vt 0.144833 -0.070312
vt 0.199219 -0.113281
vt 0.152344 -0.113281
vt 0.117622 -0.074086
vt 0.121094 -0.113281
vt 0.078125 -0.113281
vt 0.075963 -0.060338
vt 0.010643 -0.113281
vt 0.010643 -0.074219
vt 0.011940 -0.041626
vt 0.046743 -0.037720
vt 0.011075 -0.013001
vt 0.040230 -0.015165
vt 0.202826 -0.019923
vt 0.146022 -0.022095
vt 0.144833 -0.070312
vt 0.152344 -0.113281
vt 0.117622 -0.074086
vt 0.121094 -0.113281
vt 0.078125 -0.113281
vt 0.075963 -0.060338
vt 0.046743 -0.037720
vt 0.040230 -0.015165
vt 0.202826 -0.019923
vt 0.199651 -0.067643
vt 0.146022 -0.022095
vt 0.144833 -0.070312
vt 0.199219 -0.113281
vt 0.152344 -0.113281
vt 0.117622 -0.074086
vt 0.121094 -0.113281
vt 0.121094 -0.202081
vt 0.078125 -0.202081
vt 0.121094 -0.257545
vt 0.078125 -0.257545
vt 0.010643 -0.202081
vt 0.078125 -0.113281
vt 0.075963 -0.060338
vt 0.010643 -0.113281
vt 0.078125 -0.113281
vt 0.075963 -0.060338
vt 0.117622 -0.074086
vt 0.121094 -0.113281
vt 0.152344 -0.113281
vt 0.144833 -0.070312
vt 0.146022 -0.022095
vt 0.202826 -0.019923
vt 0.040230 -0.015165
vt 0.046743 -0.037720
vt 0.011075 -0.013001
vt 0.011940 -0.041626
vt 0.010643 -0.074219
vt 0.046743 -0.037720
vt 0.040230 -0.015165
vt 0.440130 -0.921082
vt 0.439802 -0.905865
vt 0.504035 -0.920746
vt 0.503678 -0.905813
vt 0.606575 -0.840894
vt 0.502742 -0.891136
vt 0.440393 -0.891715
vt 0.391152 -0.894573
vt 0.440298 -0.877999
vt 0.503166 -0.878243
vt 0.502667 -0.863767
vt 0.439602 -0.864314
vt 0.389986 -0.865702
vt 0.309204 -0.869579
vt 0.297575 -0.905561
vt 0.379408 -0.927936
vt 0.413689 -0.917722
vt 0.504293 -0.957297
vt 0.410050 -0.933879
vt 0.407417 -0.949612
vt 0.367267 -0.965878
vt 0.461292 -0.992383
vt 0.398349 -0.974992
vt 0.407417 -0.949612
vt 0.379408 -0.927936
vt 0.504293 -0.957297
vt 0.410050 -0.933879
vt 0.413689 -0.917722
vt 0.391152 -0.894573
vt 0.297575 -0.905561
vt 0.287043 -0.941518
vt 0.238098 -0.922522
vt 0.254382 -0.883954
vt 0.309204 -0.869579
vt 0.389986 -0.865702
vt 0.440298 -0.877999
vt 0.440393 -0.891715
vt 0.439802 -0.905865
vt 0.502742 -0.891136
vt 0.503166 -0.878243
vt 0.502667 -0.863767
vt 0.606575 -0.840894
vt 0.503678 -0.905813
vt 0.504035 -0.920746
vt 0.440130 -0.921082
vt 0.507430 -0.805249
vt 0.477956 -0.786969
vt 0.508163 -0.787012
vt 0.506745 -0.767127
vt 0.477956 -0.786969
vt 0.507430 -0.805249
vt 0.478769 -0.808485
vt 0.437356 -0.816528
vt 0.436798 -0.772193
vt 0.427528 -0.798064
vt 0.391837 -0.801234
vt 0.390009 -0.844278
vt 0.437729 -0.846534
vt 0.503643 -0.817323
vt 0.502603 -0.845906
vt 0.324574 -0.833991
vt 0.267997 -0.828049
vt 0.345163 -0.797339
vt 0.342371 -0.772603
vt 0.393510 -0.762968
vt 0.426265 -0.756235
vt 0.436188 -0.730405
vt 0.474117 -0.719185
vt 0.472452 -0.668483
vt 0.506067 -0.669716
vt 0.508019 -0.629420
vt 0.472452 -0.668483
vt 0.474117 -0.719185
vt 0.507682 -0.717659
vt 0.473576 -0.770854
vt 0.473576 -0.770854
vt 0.436798 -0.772193
vt 0.436188 -0.730405
vt 0.443910 -0.682814
vt 0.470395 -0.630551
vt 0.473094 -0.601562
vt 0.414472 -0.625636
vt 0.408328 -0.650748
vt 0.350723 -0.627824
vt 0.370059 -0.646050
vt 0.341080 -0.661516
vt 0.395701 -0.687846
vt 0.416561 -0.668747
vt 0.394160 -0.711418
vt 0.338299 -0.708440
vt 0.265625 -0.691406
vt 0.261719 -0.656250
vt 0.268831 -0.626836
vt 0.324865 -0.594707
vt 0.377601 -0.597959
vt 0.419295 -0.599687
vt 0.468750 -0.581470
vt 0.511436 -0.599311
vt 0.473094 -0.601562
vt 0.470395 -0.630551
vt 0.443910 -0.682814
vt 0.432482 -0.703788
vt 0.394160 -0.711418
vt 0.338299 -0.708440
vt 0.275733 -0.771930
vt 0.271816 -0.795192
vt 0.210921 -0.792844
vt 0.214069 -0.711415
vt 0.280000 -0.710657
vt 0.265625 -0.691406
vt 0.341080 -0.661516
vt 0.395701 -0.687846
vt 0.491099 -0.531339
vt 0.512576 -0.537237
vt 0.491099 -0.531339
vt 0.516774 -0.477595
vt 0.480180 -0.463734
vt 0.492741 -0.398438
vt 0.440635 -0.446084
vt 0.434867 -0.515561
vt 0.476293 -0.527273
vt 0.425781 -0.575063
vt 0.385623 -0.567251
vt 0.325314 -0.562474
vt 0.268263 -0.596252
vt 0.222656 -0.628330
vt 0.146928 -0.612789
vt 0.261719 -0.656250
vt 0.142599 -0.652795
vt 0.134651 -0.687847
vt 0.092216 -0.647475
vt 0.076360 -0.685893
vt 0.069819 -0.619229
vt 0.016838 -0.686468
vt 0.076360 -0.685893
vt 0.092216 -0.647475
vt 0.134651 -0.687847
vt 0.142599 -0.652795
vt 0.350723 -0.627824
vt 0.268831 -0.626836
vt 0.268263 -0.596252
vt 0.222656 -0.595514
vt 0.275690 -0.544582
vt 0.343308 -0.498325
vt 0.393185 -0.505774
vt 0.396895 -0.431569
vt 0.352282 -0.424735
vt 0.356766 -0.359375
vt 0.294153 -0.352379
vt 0.289256 -0.414223
vt 0.282097 -0.462783
vt 0.222656 -0.489170
vt 0.222656 -0.542969
vt 0.275690 -0.544582
vt 0.282097 -0.462783
vt 0.222656 -0.417969
vt 0.229486 -0.359375
vt 0.264588 -0.250853
vt 0.315104 -0.267398
vt 0.379583 -0.275030
vt 0.426184 -0.293922
vt 0.409777 -0.369665
vt 0.454182 -0.385178
vt 0.473117 -0.312636
vt 0.325314 -0.562474
vt 0.343308 -0.498325
vt 0.352282 -0.424735
vt 0.289256 -0.414223
vt 0.294153 -0.352379
vt 0.315104 -0.267398
vt 0.349023 -0.173518
vt 0.367748 -0.207553
vt 0.439836 -0.244350
vt 0.553243 -0.256806
vt 0.560295 -0.282141
vt 0.507812 -0.328125
vt 0.529816 -0.416279
vt 0.492741 -0.398438
vt 0.480180 -0.463734
vt 0.356766 -0.359375
vt 0.379583 -0.275030
vt 0.367748 -0.207553
vt 0.449931 -0.208220
vt 0.439836 -0.244350
vt 0.426184 -0.293922
vt 0.409777 -0.369665
vt 0.454182 -0.385178
vt 0.440635 -0.446084
vt 0.396895 -0.431569
vt 0.393185 -0.505774
vt 0.434867 -0.515561
vt 0.473117 -0.312636
vt 0.553243 -0.256806
vt 0.549529 -0.234713
vt 0.572308 -0.204502
vt 0.460855 -0.175444
vt 0.449931 -0.208220
vt 0.549529 -0.234713
vt 0.644531 -0.208731
vt 0.644004 -0.248324
vt 0.644531 -0.286561
vt 0.580564 -0.301541
vt 0.546037 -0.348426
vt 0.507812 -0.328125
vt 0.560295 -0.282141
vt 0.644004 -0.248324
vt 0.644531 -0.208731
vt 0.644531 -0.171664
vt 0.696113 -0.204024
vt 0.695118 -0.248305
vt 0.694349 -0.290979
vt 0.644531 -0.320790
vt 0.644531 -0.286561
vt 0.695118 -0.248305
vt 0.696113 -0.204024
vt 0.696113 -0.160451
vt 0.763616 -0.157149
vt 0.763616 -0.200821
vt 0.832031 -0.207031
vt 0.763616 -0.246094
vt 0.694349 -0.290979
vt 0.693559 -0.332578
vt 0.764352 -0.335420
vt 0.764417 -0.291760
vt 0.832832 -0.289554
vt 0.833499 -0.327144
vt 0.832832 -0.289554
vt 0.764417 -0.291760
vt 0.763616 -0.246094
vt 0.832031 -0.246094
vt 0.894531 -0.279339
vt 0.894108 -0.308930
vt 0.894531 -0.279339
vt 0.894531 -0.246094
vt 0.832031 -0.246094
vt 0.894531 -0.218750
vt 0.832031 -0.167969
vt 0.832031 -0.207031
vt 0.763616 -0.200821
vt 0.894531 -0.246094
vt 0.988281 -0.246094
vt 0.895434 -0.189744
vt 0.894531 -0.218750
vt 0.476293 -0.527273
vt 0.468750 -0.581470
vt 0.425781 -0.575063
vt 0.385623 -0.567251
vt 0.324865 -0.594707
vt 0.377601 -0.597959
vt 0.419295 -0.599687
vt 0.280000 -0.710657
vt 0.275733 -0.771930
vt 0.214069 -0.711415
vt 0.210921 -0.792844
vt 0.080637 -0.748685
vt 0.081422 -0.707836
vt 0.010613 -0.706502
vt 0.011763 -0.758878
vt 0.080637 -0.748685
vt 0.081422 -0.707836
vt 0.080045 -0.785390
vt 0.011439 -0.796143
vt 0.080081 -0.819252
vt 0.210210 -0.829241
vt 0.207776 -0.850877
vt 0.067458 -0.871180
vt 0.080081 -0.819252
vt 0.207776 -0.850877
vt 0.210210 -0.829241
vt 0.267997 -0.828049
vt 0.261439 -0.864282
vt 0.324574 -0.833991
vt 0.390009 -0.844278
vt 0.439602 -0.864314
vt 0.437729 -0.846534
vt 0.437356 -0.816528
vt 0.503643 -0.817323
vt 0.502603 -0.845906
vt 0.478769 -0.808485
vt 0.427528 -0.798064
vt 0.391837 -0.801234
vt 0.393510 -0.762968
vt 0.426265 -0.756235
vt 0.432482 -0.703788
vt 0.342371 -0.772603
vt 0.345163 -0.797339
vt 0.271816 -0.795192
vt 0.191046 -0.908743
vt 0.254382 -0.883954
vt 0.261439 -0.864282
vt 0.080045 -0.785390
vt 0.414472 -0.625636
vt 0.408328 -0.650748
vt 0.370059 -0.646050
vt 0.416561 -0.668747
vt 0.199219 -0.202081
vt 0.152344 -0.202081
vt 0.152344 -0.257545
vt 0.145098 -0.289062
vt 0.104363 -0.292969
vt 0.059859 -0.289488
vt 0.090825 -0.335663
vt 0.143342 -0.335085
vt 0.189692 -0.332549
vt 0.199219 -0.289062
vt 0.199219 -0.257545
vt 0.152344 -0.202081
vt 0.121094 -0.202081
vt 0.078125 -0.202081
vt 0.078125 -0.257545
vt 0.010643 -0.257545
vt 0.012958 -0.289062
vt 0.026833 -0.337245
vt 0.090182 -0.349495
vt 0.145500 -0.356184
vt 0.188416 -0.356711
vt 0.143342 -0.335085
vt 0.145098 -0.289062
vt 0.152344 -0.257545
vt 0.121094 -0.257545
vt 0.104363 -0.292969
vt 0.090825 -0.335663
vt 0.059859 -0.289488
vt 0.090182 -0.349495
vt 0.145500 -0.356184
vt 0.139546 -0.420460
vt 0.075151 -0.426262
vt 0.028701 -0.350341
vt 0.075151 -0.426262
vt 0.139546 -0.420460
vt 0.181283 -0.415608
vt 0.131140 -0.480469
vt 0.069207 -0.481035
vt 0.023438 -0.496094
vt 0.021742 -0.428993
vt 0.069207 -0.481035
vt 0.131140 -0.480469
vt 0.178591 -0.479911
vt 0.125571 -0.520673
vt 0.065301 -0.530720
vt 0.005390 -0.556985
vt 0.065301 -0.530720
vt 0.125571 -0.520673
vt 0.168558 -0.542969
vt 0.124073 -0.557657
vt 0.062216 -0.563459
vt 0.064082 -0.597847
vt 0.062216 -0.563459
vt 0.124073 -0.557657
vt 0.136956 -0.583441
vt 0.010643 -0.202081
vt 0.078125 -0.202081
vt 0.121094 -0.202081
vt 0.152344 -0.202081
vt 0.199219 -0.202081
vt 0.152344 -0.202081
vt 0.121094 -0.202081
vt 0.078125 -0.202081
vt 0.078125 -0.257545
vt 0.010643 -0.257545
vt 0.078125 -0.257545
vt 0.121094 -0.257545
vt 0.152344 -0.257545
vt 0.199219 -0.257545
vt 0.152344 -0.257545
vt 0.121094 -0.257545
vt 0.104363 -0.292969
vt 0.059859 -0.289488
vt 0.012958 -0.289062
vt 0.059859 -0.289488
vt 0.104363 -0.292969
vt 0.145098 -0.289062
vt 0.199219 -0.289062
vt 0.145098 -0.289062
vt 0.143342 -0.335085
vt 0.090825 -0.335663
vt 0.026833 -0.337245
vt 0.090825 -0.335663
vt 0.143342 -0.335085
vt 0.189692 -0.332549
vt 0.188416 -0.356711
vt 0.145500 -0.356184
vt 0.090182 -0.349495
vt 0.028701 -0.350341
vt 0.090182 -0.349495
vt 0.145500 -0.356184
vt 0.139546 -0.420460
vt 0.075151 -0.426262
vt 0.021742 -0.428993
vt 0.023438 -0.496094
vt 0.069207 -0.481035
vt 0.131140 -0.480469
vt 0.181283 -0.415608
vt 0.139546 -0.420460
vt 0.075151 -0.426262
vt 0.069207 -0.481035
vt 0.131140 -0.480469
vt 0.178591 -0.479911
vt 0.125571 -0.520673
vt 0.168558 -0.542969
vt 0.125571 -0.520673
vt 0.065301 -0.530720
vt 0.005390 -0.556985
vt 0.065301 -0.530720
vt 0.124073 -0.557657
vt 0.136956 -0.583441
vt 0.124073 -0.557657
vt 0.062216 -0.563459
vt 0.064082 -0.597847
vt 0.062216 -0.563459
vt 0.273438 -0.058594
vt 0.273438 -0.011719
vt 0.401036 -0.011719
vt 0.396019 -0.050790
vt 0.273438 -0.058594
vt 0.418900 -0.086509
vt 0.273438 -0.105469
vt 0.396019 -0.050790
vt 0.510612 -0.011719
vt 0.273438 -0.058594
vt 0.273438 -0.105469
vt 0.324602 -0.099405
vt 0.273438 -0.058594
vt 0.418900 -0.086509
vt 0.396019 -0.050790
vt 0.273438 -0.011719
vt 0.401036 -0.011719
vt 0.510612 -0.011719
vt 0.396019 -0.050790
vt 0.273438 -0.058594
vt 0.401036 -0.011719
vt 0.273438 -0.011719
vt 0.396019 -0.050790
vt 0.273438 -0.058594
vt 0.418900 -0.086509
vt 0.273438 -0.105469
vt 0.396019 -0.050790
vt 0.510612 -0.011719
vt 0.273438 -0.011719
vt 0.273438 -0.058594
vt 0.401036 -0.011719
vt 0.396019 -0.050790
vt 0.273438 -0.105469
vt 0.418900 -0.086509
vt 0.273438 -0.058594
vt 0.396019 -0.050790
vt 0.510612 -0.011719
vt 0.273438 -0.058594
vt 0.324602 -0.099405
vt 0.273438 -0.105469
vt 0.273438 -0.058594
vt 0.418900 -0.086509
vt 0.396019 -0.050790
vt 0.273438 -0.011719
vt 0.401036 -0.011719
vt 0.396019 -0.050790
vt 0.510612 -0.011719
vt 0.273438 -0.011719
vt 0.401036 -0.011719
vt 0.273438 -0.058594
vt 0.396019 -0.050790
vt 0.273438 -0.105469
vt 0.418900 -0.086509
vt 0.273438 -0.058594
vt 0.396019 -0.050790
vt 0.510612 -0.011719
vt 0.996094 -0.007812
vt 0.945312 -0.105469
vt 0.945312 -0.007812
vt 0.906250 -0.007812
vt 0.945312 -0.007812
vt 0.996094 -0.007812
vt 0.945312 -0.105469
vt 0.945312 -0.007812
vt 0.906250 -0.007812
vt 0.945312 -0.007812
vt 0.996094 -0.007812
vt 0.945312 -0.105469
vt 0.945312 -0.007812
vt 0.906250 -0.007812
vt 0.945312 -0.007812
vt 0.996094 -0.007812
vt 0.945312 -0.105469
vt 0.945312 -0.007812
vt 0.906250 -0.007812
vt 0.945312 -0.007812
vt 0.996094 -0.007812
vt 0.945312 -0.105469
vt 0.945312 -0.007812
vt 0.906250 -0.007812
vt 0.945312 -0.007812
vt 0.996094 -0.007812
vt 0.945312 -0.105469
vt 0.945312 -0.007812
vt 0.906250 -0.007812
vt 0.945312 -0.007812
vt 0.996094 -0.007812
vt 0.945312 -0.105469
vt 0.945312 -0.007812
vt 0.906250 -0.007812
vt 0.945312 -0.007812
vt 0.996094 -0.007812
vt 0.945312 -0.105469
vt 0.945312 -0.007812
vt 0.906250 -0.007812
vt 0.945312 -0.007812
vt 0.996094 -0.007812
vt 0.945312 -0.105469
vt 0.945312 -0.007812
vt 0.906250 -0.007812
vt 0.945312 -0.007812
vt 0.996094 -0.007812
vt 0.945312 -0.105469
vt 0.945312 -0.007812
vt 0.906250 -0.007812
vt 0.945312 -0.007812
vt 0.996094 -0.007812
vt 0.945312 -0.105469
vt 0.945312 -0.007812
vt 0.906250 -0.007812
vt 0.945312 -0.007812
vt 0.996094 -0.007812
vt 0.945312 -0.105469
vt 0.945312 -0.007812
vt 0.906250 -0.007812
vt 0.945312 -0.007812
vt 0.996094 -0.007812
vt 0.945312 -0.105469
vt 0.945312 -0.007812
vt 0.906250 -0.007812
vt 0.945312 -0.007812
vt 0.996094 -0.007812
vt 0.945312 -0.105469
vt 0.945312 -0.007812
vt 0.906250 -0.007812
vt 0.945312 -0.007812
vt 0.996094 -0.007812
vt 0.945312 -0.105469
vt 0.945312 -0.007812
vt 0.906250 -0.007812
vt 0.945312 -0.007812
vt 0.605044 -0.119092
vt 0.585445 -0.080851
vt 0.621210 -0.057473
vt 0.605044 -0.119092
vt 0.662992 -0.099089
vt 0.608969 -0.140551
vt 0.666008 -0.127900
vt 0.662992 -0.099089
vt 0.652215 -0.007523
vt 0.705158 -0.044253
vt 0.756439 -0.104252
vt 0.786545 -0.133490
vt 0.756441 -0.104252
vt 0.769703 -0.037536
vt 0.870488 -0.012742
vt 0.150158 -0.915552
vt 0.078141 -0.915552
vt 0.117203 -0.993889
vt 0.078141 -0.993889
vt 0.043573 -0.925129
vt 0.042985 -0.993889
vt 0.024042 -0.944660
vt 0.023453 -0.993889
vt 0.007828 -0.993889
vt 0.024042 -0.944660
vt 0.043573 -0.925129
vt 0.078141 -0.915552
vt 0.150158 -0.915552
vt 0.150158 -0.993889
vt 0.200939 -0.928824
vt 0.200939 -0.993889
vt 0.247437 -0.964568
vt 0.246472 -0.993889
vt 0.263486 -0.993889
vt 0.247437 -0.964568
vt 0.200939 -0.928824
vt 0.945312 -0.007812
vt 0.945312 -0.105469
vt 0.996094 -0.007812
vt 0.945312 -0.007812
vt 0.906250 -0.007812
vt 0.945312 -0.007812
vt 0.945312 -0.105469
vt 0.996094 -0.007812
vt 0.945312 -0.007812
vt 0.906250 -0.007812
vt 0.945312 -0.007812
vt 0.945312 -0.105469
vt 0.996094 -0.007812
vt 0.945312 -0.007812
vt 0.906250 -0.007812
vt 0.945312 -0.007812
vt 0.945312 -0.105469
vt 0.996094 -0.007812
vt 0.945312 -0.007812
vt 0.906250 -0.007812
vt 0.945312 -0.007812
vt 0.945312 -0.105469
vt 0.996094 -0.007812
vt 0.945312 -0.007812
vt 0.906250 -0.007812
vt 0.945312 -0.007812
vt 0.945312 -0.105469
vt 0.996094 -0.007812
vt 0.945312 -0.007812
vt 0.906250 -0.007812
vt 0.945312 -0.007812
vt 0.945312 -0.105469
vt 0.996094 -0.007812
vt 0.945312 -0.007812
vt 0.906250 -0.007812
vt 0.945312 -0.007812
vt 0.945312 -0.105469
vt 0.996094 -0.007812
vt 0.945312 -0.007812
vt 0.906250 -0.007812
vt 0.945312 -0.007812
vt 0.945312 -0.105469
vt 0.996094 -0.007812
vt 0.945312 -0.007812
vt 0.906250 -0.007812
vt 0.945312 -0.007812
vt 0.945312 -0.105469
vt 0.996094 -0.007812
vt 0.945312 -0.007812
vt 0.906250 -0.007812
vt 0.945312 -0.007812
vt 0.945312 -0.105469
vt 0.996094 -0.007812
vt 0.945312 -0.007812
vt 0.906250 -0.007812
vt 0.945312 -0.007812
vt 0.945312 -0.105469
vt 0.996094 -0.007812
vt 0.945312 -0.007812
vt 0.906250 -0.007812
vt 0.945312 -0.007812
vt 0.945312 -0.105469
vt 0.996094 -0.007812
vt 0.945312 -0.007812
vt 0.906250 -0.007812
vt 0.945312 -0.007812
vt 0.945312 -0.105469
vt 0.996094 -0.007812
vt 0.945312 -0.007812
vt 0.906250 -0.007812
vt 0.945312 -0.007812
vt 0.945312 -0.105469
vt 0.996094 -0.007812
vt 0.945312 -0.007812
vt 0.906250 -0.007812
vt 0.605044 -0.119092
vt 0.621210 -0.057473
vt 0.585445 -0.080851
vt 0.605044 -0.119092
vt 0.662992 -0.099089
vt 0.608969 -0.140551
vt 0.666008 -0.127900
vt 0.662992 -0.099089
vt 0.652215 -0.007523
vt 0.705158 -0.044253
vt 0.756439 -0.104252
vt 0.786545 -0.133490
vt 0.756441 -0.104252
vt 0.769703 -0.037536
vt 0.870488 -0.012742
vt 0.955179 -0.777351
vt 0.892920 -0.771444
vt 0.855098 -0.730594
vt 0.798773 -0.751182
vt 0.820695 -0.791644
vt 0.761955 -0.765115
vt 0.683438 -0.816380
vt 0.812995 -0.774852
vt 0.800177 -0.748668
vt 0.721841 -0.746187
vt 0.760283 -0.731607
vt 0.822693 -0.691776
vt 0.862856 -0.661109
vt 0.892466 -0.710951
vt 0.866987 -0.738862
vt 0.822028 -0.691720
vt 0.775977 -0.682156
vt 0.732288 -0.694992
vt 0.664941 -0.587108
vt 0.696615 -0.590142
vt 0.812577 -0.654417
vt 0.775977 -0.682156
vt 0.664941 -0.587108
vt 0.732288 -0.694992
vt 0.691489 -0.709837
vt 0.761422 -0.729184
vt 0.657520 -0.685059
vt 0.698517 -0.665524
vt 0.627164 -0.574920
vt 0.584348 -0.630497
vt 0.698517 -0.665524
vt 0.627164 -0.574920
vt 0.596184 -0.545233
vt 0.674780 -0.501448
vt 0.699371 -0.517107
vt 0.711594 -0.528376
vt 0.808594 -0.504519
vt 0.809622 -0.476774
vt 0.807226 -0.444853
vt 0.653433 -0.489830
vt 0.674780 -0.501448
vt 0.699371 -0.517107
vt 0.711594 -0.528376
vt 0.737603 -0.550929
vt 0.809622 -0.521242
vt 0.902344 -0.496179
vt 0.902344 -0.482066
vt 0.901237 -0.394526
vt 0.902344 -0.433594
vt 0.941406 -0.410156
vt 0.945312 -0.453125
vt 0.941406 -0.492188
vt 0.872525 -0.520766
vt 0.902344 -0.496179
vt 0.941406 -0.492188
vt 0.945312 -0.453125
vt 0.988281 -0.468750
vt 0.945312 -0.453125
vt 0.872525 -0.520766
vt 0.809622 -0.521242
vt 0.808594 -0.504519
vt 0.808594 -0.504519
vt 0.809622 -0.476774
vt 0.807226 -0.444853
vt 0.801910 -0.417273
vt 0.901237 -0.394526
vt 0.902344 -0.433594
vt 0.901237 -0.394526
vt 0.902344 -0.482066
vt 0.902344 -0.496179
vt 0.941406 -0.492188
vt 0.945312 -0.453125
vt 0.941406 -0.410156
vt 0.945312 -0.453125
vt 0.972656 -0.445218
vt 0.992188 -0.410156
vt 0.988281 -0.468750
vt 0.972656 -0.445218
vt 0.941406 -0.410156
vt 0.868906 -0.825594
vt 0.900184 -0.864361
vt 0.830464 -0.942951
vt 0.776444 -0.899466
vt 0.732158 -0.859051
vt 0.629512 -0.864180
vt 0.666341 -0.900163
vt 0.734817 -0.853541
vt 0.799874 -0.908079
vt 0.709648 -0.944453
vt 0.851607 -0.950632
vt 0.879289 -0.840600
vt 0.921302 -0.869843
vt 0.735525 -0.983904
vt 0.703230 -0.946558
vt 0.663132 -0.911501
vt 0.624432 -0.928819
vt 0.676602 -0.984902
vt 0.767820 -0.985447
vt 0.683293 -0.978914
vt 0.945312 -0.453125
vt 0.988281 -0.468750
vt 0.972656 -0.445218
vt 0.992188 -0.410156
vt 0.972656 -0.445218
vt 0.972656 -0.445218
vt 0.992188 -0.410156
vt 0.972656 -0.445218
vt 0.892920 -0.771444
vt 0.955179 -0.777351
vt 0.855098 -0.730594
vt 0.892466 -0.710951
vt 0.866987 -0.738862
vt 0.862856 -0.661109
vt 0.822693 -0.691776
vt 0.812577 -0.654417
vt 0.775977 -0.682156
vt 0.696615 -0.590142
vt 0.775977 -0.682156
vt 0.822028 -0.691720
vt 0.800177 -0.748668
vt 0.761422 -0.729184
vt 0.732288 -0.694992
vt 0.664941 -0.587108
vt 0.737603 -0.550929
vt 0.711594 -0.528376
vt 0.809622 -0.521242
vt 0.808594 -0.504519
vt 0.902344 -0.496179
vt 0.809622 -0.476774
vt 0.699371 -0.517107
vt 0.627164 -0.574920
vt 0.698517 -0.665524
vt 0.657520 -0.685059
vt 0.691489 -0.709837
vt 0.721841 -0.746187
vt 0.761955 -0.765115
vt 0.812995 -0.774852
vt 0.868906 -0.825594
vt 0.900184 -0.864361
vt 0.921302 -0.869843
vt 0.851607 -0.950632
vt 0.879289 -0.840600
vt 0.820695 -0.791644
vt 0.799874 -0.908079
vt 0.709648 -0.944453
vt 0.666341 -0.900163
vt 0.734817 -0.853541
vt 0.683438 -0.816380
vt 0.629512 -0.864180
vt 0.732158 -0.859051
vt 0.798773 -0.751182
vt 0.760283 -0.731607
vt 0.732288 -0.694992
vt 0.698517 -0.665524
vt 0.664941 -0.587108
vt 0.627164 -0.574920
vt 0.584348 -0.630497
vt 0.596184 -0.545233
vt 0.674780 -0.501448
vt 0.699371 -0.517107
vt 0.711594 -0.528376
vt 0.809622 -0.521242
vt 0.808594 -0.504519
vt 0.902344 -0.496179
vt 0.872525 -0.520766
vt 0.941406 -0.492188
vt 0.872525 -0.520766
vt 0.941406 -0.492188
vt 0.902344 -0.482066
vt 0.901237 -0.394526
vt 0.807226 -0.444853
vt 0.674780 -0.501448
vt 0.653433 -0.489830
vt 0.807226 -0.444853
vt 0.809622 -0.476774
vt 0.808594 -0.504519
vt 0.902344 -0.496179
vt 0.941406 -0.492188
vt 0.945312 -0.453125
vt 0.902344 -0.433594
vt 0.941406 -0.410156
vt 0.901237 -0.394526
vt 0.902344 -0.482066
vt 0.901237 -0.394526
vt 0.801910 -0.417273
vt 0.902344 -0.433594
vt 0.941406 -0.410156
vt 0.945312 -0.453125
vt 0.988281 -0.468750
vt 0.972656 -0.445218
vt 0.992188 -0.410156
vt 0.972656 -0.445218
vt 0.945312 -0.453125
vt 0.945312 -0.453125
vt 0.941406 -0.410156
vt 0.945312 -0.453125
vt 0.988281 -0.468750
vt 0.945312 -0.453125
vt 0.972656 -0.445218
vt 0.988281 -0.468750
vt 0.972656 -0.445218
vt 0.992188 -0.410156
vt 0.972656 -0.445218
vt 0.992188 -0.410156
vt 0.972656 -0.445218
vt 0.776444 -0.899466
vt 0.830464 -0.942951
vt 0.735525 -0.983904
vt 0.703230 -0.946558
vt 0.663132 -0.911501
vt 0.624432 -0.928819
vt 0.676602 -0.984902
vt 0.767820 -0.985447
vt 0.683293 -0.978914
usemtl Dorumon
s 1
f 1/1 3/2 2/3
f 3/2 4/4 2/3
f 2/3 4/4 5/5
f 5/5 4/4 6/6
f 4/4 7/7 6/6
f 6/6 7/7 8/8
f 8/8 7/7 9/9
f 7/7 10/10 9/9
f 9/9 10/10 11/11
f 11/11 10/10 12/12
f 12/12 10/10 13/13
f 10/10 3/14 13/13
f 13/13 3/14 14/15
f 3/14 1/16 14/15
f 15/17 2/3 16/18
f 16/18 2/3 17/19
f 2/3 5/5 17/19
f 5/5 18/20 17/19
f 17/19 18/20 19/21
f 18/20 20/22 19/21
f 20/22 21/23 19/21
f 19/21 21/23 22/24
f 21/23 11/11 22/24
f 11/11 12/12 22/24
f 12/12 13/13 22/24
f 22/24 13/13 16/25
f 13/13 14/15 16/25
f 16/25 14/15 15/26
f 23/27 25/28 24/29
f 24/29 25/28 26/30
f 25/28 27/31 26/30
f 27/31 28/32 26/30
f 26/30 28/32 29/33
f 29/33 28/32 30/34
f 28/32 31/35 30/34
f 30/34 31/35 32/36
f 31/35 33/37 32/36
f 33/37 34/38 32/36
f 34/38 35/39 32/36
f 35/39 36/40 32/36
f 32/36 36/40 30/34
f 30/34 36/40 29/33
f 29/33 36/40 37/41
f 37/41 36/40 38/42
f 36/40 35/39 38/42
f 35/39 39/43 38/42
f 38/42 39/43 40/44
f 40/44 39/43 41/45
f 39/43 42/46 41/45
f 42/46 43/47 41/45
f 41/45 43/47 44/48
f 43/47 27/31 44/48
f 27/31 25/28 44/48
f 44/48 25/28 45/49
f 25/28 46/50 45/49
f 23/51 24/52 47/53
f 47/53 24/52 48/54
f 24/52 37/41 48/54
f 48/54 37/41 49/55
f 37/41 38/42 49/55
f 38/42 40/44 49/55
f 49/55 40/44 48/54
f 40/44 45/56 48/54
f 48/54 45/56 47/53
f 45/56 46/57 47/53
f 50/58 52/59 51/60
f 52/59 53/61 51/60
f 51/60 53/61 54/62
f 54/62 53/61 55/63
f 53/61 52/59 55/63
f 55/63 52/59 56/64
f 52/59 57/65 56/64
f 57/65 58/66 56/64
f 58/66 59/67 56/64
f 56/64 59/67 55/63
f 55/63 59/67 54/62
f 54/62 59/67 60/68
f 59/67 58/66 60/68
f 60/68 58/66 61/69
f 61/69 58/66 62/70
f 58/66 57/65 62/70
f 62/70 57/65 63/71
f 63/71 57/65 64/72
f 64/72 57/65 65/73
f 57/65 52/74 65/73
f 65/73 52/74 66/75
f 52/74 67/76 66/75
f 67/76 68/77 66/75
f 66/75 68/77 65/73
f 65/73 68/77 69/78
f 69/78 68/77 70/79
f 68/77 71/80 70/79
f 71/80 72/81 70/79
f 70/79 72/81 69/78
f 69/78 72/81 73/82
f 73/82 72/81 74/83
f 72/81 75/84 74/83
f 75/84 76/85 74/83
f 74/83 76/85 73/82
f 76/85 77/86 73/82
f 77/86 78/87 73/82
f 78/87 79/88 73/82
f 73/82 79/88 69/78
f 69/78 79/88 65/73
f 65/73 79/88 64/72
f 64/72 79/88 80/89
f 79/88 78/87 80/89
f 80/89 78/87 81/90
f 81/90 78/87 82/91
f 78/87 77/86 82/91
f 82/91 77/86 83/92
f 83/92 77/86 84/93
f 84/93 77/86 85/94
f 77/86 76/95 85/94
f 76/95 86/96 85/94
f 86/96 87/97 85/94
f 85/94 87/97 84/93
f 84/93 87/97 88/98
f 88/98 87/97 89/99
f 87/97 86/96 89/99
f 89/99 86/96 90/100
f 86/96 76/95 90/100
f 90/100 76/95 91/101
f 76/95 92/102 91/101
f 90/100 91/101 89/99
f 68/103 67/104 71/105
f 67/104 93/106 71/105
f 93/106 75/107 71/105
f 71/105 75/107 72/108
f 52/109 50/110 67/104
f 67/104 50/110 94/111
f 50/110 95/112 94/111
f 94/111 95/112 96/113
f 95/112 50/110 96/113
f 96/113 50/110 97/114
f 97/114 50/110 98/115
f 50/110 51/116 98/115
f 98/115 51/116 99/117
f 51/116 54/62 99/117
f 54/62 60/68 99/117
f 99/117 60/68 98/115
f 60/68 61/69 98/115
f 98/115 61/69 97/114
f 61/69 62/70 97/114
f 97/114 62/70 100/118
f 62/70 63/71 100/118
f 63/71 101/119 100/118
f 101/119 102/120 100/118
f 100/118 102/120 97/114
f 97/114 102/120 96/113
f 102/120 103/121 96/113
f 103/121 104/122 96/113
f 96/113 104/122 94/111
f 94/111 104/122 105/123
f 104/122 106/124 105/123
f 105/123 106/124 94/111
f 94/111 106/124 107/125
f 106/124 108/126 107/125
f 107/125 108/126 109/127
f 108/126 110/128 109/127
f 110/128 111/129 109/127
f 111/129 112/130 109/127
f 112/130 113/131 109/127
f 109/127 113/131 107/125
f 113/131 114/132 107/125
f 107/125 114/132 94/111
f 94/111 114/132 67/104
f 67/104 114/132 93/106
f 114/132 113/131 93/106
f 93/106 113/131 115/133
f 113/131 112/130 115/133
f 115/133 112/130 116/134
f 116/134 112/130 117/135
f 112/130 111/129 117/135
f 117/135 111/129 118/136
f 118/136 111/129 119/137
f 111/129 110/128 119/137
f 110/128 120/138 119/137
f 120/138 121/139 119/137
f 119/137 121/139 118/136
f 118/136 121/139 122/140
f 121/139 123/141 122/140
f 122/140 123/141 124/142
f 123/141 125/143 124/142
f 124/142 125/143 122/140
f 125/143 126/144 122/140
f 126/144 127/145 122/140
f 122/140 127/145 118/136
f 127/145 126/144 118/136
f 118/136 126/144 128/146
f 128/146 126/144 129/147
f 126/144 125/143 129/147
f 129/147 125/143 130/148
f 130/148 125/143 131/149
f 125/143 123/141 131/149
f 131/149 123/141 132/150
f 132/150 123/141 133/151
f 133/151 123/141 134/152
f 123/141 121/139 134/152
f 134/152 121/139 135/153
f 121/139 120/138 135/153
f 135/153 120/138 136/154
f 136/154 120/138 137/155
f 120/138 110/128 137/155
f 137/155 110/128 138/156
f 138/156 110/128 139/157
f 110/128 108/126 139/157
f 139/157 108/126 140/158
f 108/126 106/124 140/158
f 140/158 106/124 141/159
f 141/159 106/124 142/160
f 106/124 104/122 142/160
f 142/160 104/122 143/161
f 104/122 103/121 143/161
f 143/161 103/121 144/162
f 103/121 102/120 144/162
f 144/162 102/120 145/163
f 102/120 101/119 145/163
f 101/119 146/164 145/163
f 145/163 146/164 144/162
f 146/164 147/165 144/162
f 147/165 148/166 144/162
f 144/162 148/166 143/161
f 148/166 149/167 143/161
f 149/167 150/168 143/161
f 150/168 151/169 143/161
f 143/161 151/169 142/160
f 151/169 140/158 142/160
f 142/160 140/158 141/159
f 136/154 137/155 152/170
f 152/170 137/155 153/171
f 137/155 154/172 153/171
f 154/172 155/173 153/171
f 153/171 155/173 152/170
f 152/170 155/173 156/174
f 155/173 157/175 156/174
f 157/175 158/176 156/174
f 158/176 159/177 156/174
f 156/174 159/177 160/178
f 160/178 159/177 136/154
f 159/177 161/179 136/154
f 136/154 161/179 135/153
f 135/153 161/179 134/152
f 161/179 162/180 134/152
f 134/152 162/180 133/151
f 162/180 163/181 133/151
f 163/181 164/182 133/151
f 133/151 164/182 132/150
f 164/182 165/183 132/150
f 132/150 165/183 131/149
f 131/149 165/183 166/184
f 165/183 167/185 166/184
f 166/184 167/185 168/186
f 167/185 149/167 168/186
f 149/167 169/187 168/186
f 168/186 169/187 170/188
f 169/187 171/189 170/188
f 170/188 171/189 172/190
f 171/189 173/191 172/190
f 173/191 174/192 172/190
f 172/190 174/192 175/193
f 174/192 176/194 175/193
f 175/193 176/194 177/195
f 176/194 130/148 177/195
f 130/148 131/149 177/195
f 131/149 166/184 177/195
f 177/195 166/184 175/193
f 175/193 166/184 172/190
f 172/190 166/184 170/188
f 166/184 168/186 170/188
f 149/167 167/185 150/168
f 150/168 167/185 178/196
f 178/196 167/185 179/197
f 167/185 165/183 179/197
f 179/197 165/183 180/198
f 180/198 165/183 181/199
f 165/183 164/182 181/199
f 181/199 164/182 182/200
f 164/182 163/181 182/200
f 182/200 163/181 183/201
f 163/181 162/180 183/201
f 183/201 162/180 184/202
f 162/180 161/179 184/202
f 161/179 159/177 184/202
f 159/177 158/176 184/202
f 158/176 185/203 184/202
f 184/202 185/203 183/201
f 183/201 185/203 186/204
f 185/203 187/205 186/204
f 187/205 188/206 186/204
f 188/206 189/207 186/204
f 189/207 190/208 186/204
f 186/204 190/208 183/201
f 183/201 190/208 182/200
f 190/208 191/209 182/200
f 191/209 192/210 182/200
f 182/200 192/210 181/199
f 181/199 192/210 193/211
f 192/210 191/209 193/211
f 193/211 191/209 194/212
f 194/212 191/209 195/213
f 191/209 190/208 195/213
f 190/208 189/207 195/213
f 195/213 189/207 196/214
f 189/207 188/206 196/214
f 196/214 188/206 197/215
f 197/215 188/206 198/216
f 188/206 187/205 198/216
f 198/216 187/205 199/217
f 199/217 187/205 200/218
f 200/218 187/205 201/219
f 187/205 185/203 201/219
f 185/203 158/176 201/219
f 201/219 158/176 202/220
f 158/176 157/175 202/220
f 157/175 203/221 202/220
f 203/221 200/218 202/220
f 202/220 200/218 201/219
f 181/199 193/211 180/198
f 180/198 193/211 204/222
f 204/222 193/211 205/223
f 193/211 194/212 205/223
f 205/223 194/212 206/224
f 206/224 194/212 207/225
f 194/212 195/213 207/225
f 195/213 196/214 207/225
f 207/225 196/214 208/226
f 196/214 197/215 208/226
f 208/226 197/215 209/227
f 209/227 197/215 210/228
f 197/215 198/216 210/228
f 210/228 198/216 211/229
f 198/216 199/217 211/229
f 211/229 199/217 212/230
f 199/217 200/218 212/230
f 200/218 203/221 212/230
f 212/230 203/221 213/231
f 213/231 203/221 214/232
f 214/232 203/221 215/233
f 203/221 157/175 215/233
f 215/233 157/175 216/234
f 157/175 155/173 216/234
f 216/234 155/173 217/235
f 217/235 155/173 218/236
f 155/173 154/172 218/236
f 207/225 208/226 206/224
f 206/224 208/226 219/237
f 208/226 209/227 219/237
f 219/237 209/227 220/238
f 220/238 209/227 221/239
f 209/227 210/228 221/239
f 210/228 222/240 221/239
f 222/240 223/241 221/239
f 221/239 223/241 220/238
f 223/241 224/242 220/238
f 220/238 224/242 219/237
f 219/237 224/242 225/243
f 224/242 226/244 225/243
f 226/244 227/245 225/243
f 227/245 228/246 225/243
f 225/243 228/246 219/237
f 219/237 228/246 206/224
f 206/224 228/246 205/223
f 205/223 228/246 229/247
f 228/246 227/245 229/247
f 229/247 227/245 230/248
f 230/248 227/245 218/236
f 218/236 227/245 217/235
f 227/245 226/244 217/235
f 217/235 226/244 231/249
f 226/244 224/242 231/249
f 224/242 223/241 231/249
f 231/249 223/241 232/250
f 232/250 223/241 233/251
f 223/241 222/240 233/251
f 233/251 222/240 234/252
f 234/252 222/240 235/253
f 222/240 210/228 235/253
f 235/253 210/228 236/254
f 210/228 211/229 236/254
f 211/229 212/230 236/254
f 236/254 212/230 237/255
f 212/230 213/231 237/255
f 237/255 213/231 238/256
f 238/256 213/231 239/257
f 213/231 214/232 239/257
f 239/257 214/232 240/258
f 240/258 214/232 241/259
f 214/232 215/233 241/259
f 241/259 215/233 242/260
f 215/233 216/234 242/260
f 242/260 216/234 243/261
f 216/234 217/235 243/261
f 217/235 231/249 243/261
f 243/261 231/249 244/262
f 231/249 232/250 244/262
f 244/262 232/250 245/263
f 245/263 232/250 246/264
f 232/250 233/251 246/264
f 246/264 233/251 247/265
f 233/251 234/252 247/265
f 247/265 234/252 237/255
f 237/255 234/252 236/254
f 234/252 235/253 236/254
f 237/255 238/256 247/265
f 247/265 238/256 248/266
f 248/266 238/256 249/267
f 238/256 239/257 249/267
f 239/257 240/258 249/267
f 249/267 240/258 250/268
f 250/268 240/258 251/269
f 240/258 241/259 251/269
f 251/269 241/259 252/270
f 252/270 241/259 244/262
f 244/262 241/259 243/261
f 241/259 242/260 243/261
f 244/262 245/263 252/270
f 252/270 245/263 253/271
f 245/263 246/264 253/271
f 253/271 246/264 254/272
f 246/264 247/265 254/272
f 254/272 247/265 255/273
f 247/265 248/266 255/273
f 248/266 256/274 255/273
f 255/273 256/274 254/272
f 254/272 256/274 257/275
f 256/274 258/276 257/275
f 258/276 259/277 257/275
f 257/275 259/277 254/272
f 254/272 259/277 253/271
f 259/277 260/278 253/271
f 253/271 260/278 252/270
f 252/270 260/278 251/269
f 260/278 261/279 251/269
f 251/269 261/279 250/268
f 250/268 261/279 262/280
f 261/279 260/278 262/280
f 262/280 260/278 263/281
f 260/278 259/277 263/281
f 259/277 264/282 263/281
f 263/281 264/282 262/280
f 264/282 265/283 262/280
f 265/283 266/284 262/280
f 266/284 267/285 262/280
f 262/280 267/285 250/268
f 250/268 267/285 268/286
f 267/285 266/284 268/286
f 268/286 266/284 269/287
f 269/287 266/284 270/288
f 266/284 265/283 270/288
f 270/288 265/283 271/289
f 271/289 265/283 272/290
f 265/283 264/282 272/290
f 272/290 264/282 273/291
f 273/291 264/282 274/292
f 264/282 259/277 274/292
f 259/277 258/276 274/292
f 274/292 258/276 273/291
f 273/291 258/276 275/293
f 275/293 258/276 276/294
f 258/276 256/274 276/294
f 276/294 256/274 277/295
f 277/295 256/274 278/296
f 256/274 248/266 278/296
f 278/296 248/266 268/286
f 248/266 249/267 268/286
f 268/286 249/267 250/268
f 278/296 268/286 277/295
f 268/286 269/287 277/295
f 277/295 269/287 279/297
f 269/287 270/288 279/297
f 279/297 270/288 280/298
f 270/288 271/289 280/298
f 271/289 272/290 280/298
f 272/290 273/291 280/298
f 273/291 275/293 280/298
f 280/298 275/293 281/299
f 275/293 276/294 281/299
f 281/299 276/294 282/300
f 276/294 277/295 282/300
f 277/295 279/297 282/300
f 279/297 280/298 282/300
f 282/300 280/298 281/299
f 218/236 283/301 230/248
f 283/301 284/302 230/248
f 284/302 285/303 230/248
f 230/248 285/303 229/247
f 285/303 286/304 229/247
f 229/247 286/304 205/223
f 205/223 286/304 204/222
f 286/304 287/305 204/222
f 204/222 287/305 180/198
f 180/198 287/305 179/197
f 179/197 287/305 178/196
f 178/196 287/305 288/306
f 287/305 286/304 288/306
f 286/304 285/303 288/306
f 288/306 285/303 289/307
f 285/303 284/302 289/307
f 289/307 284/302 138/156
f 138/156 284/302 137/155
f 284/302 154/172 137/155
f 130/148 290/308 129/147
f 129/147 290/308 291/309
f 290/308 292/310 291/309
f 291/309 292/310 293/311
f 293/311 292/310 294/312
f 292/310 295/313 294/312
f 295/313 296/314 294/312
f 294/312 296/314 297/315
f 297/315 296/314 298/316
f 296/314 299/317 298/316
f 299/317 147/165 298/316
f 147/165 146/164 298/316
f 146/164 300/318 298/316
f 298/316 300/318 297/315
f 297/315 300/318 301/319
f 301/319 300/318 302/320
f 300/318 146/164 302/320
f 302/320 146/164 303/321
f 146/164 101/119 303/321
f 101/119 304/322 303/321
f 303/321 304/322 302/320
f 304/322 305/323 302/320
f 302/320 305/323 301/319
f 301/319 305/323 306/324
f 305/323 307/325 306/324
f 307/325 308/326 306/324
f 306/324 308/326 293/311
f 293/311 308/326 309/327
f 308/326 307/325 309/327
f 309/327 307/325 310/328
f 307/325 81/90 310/328
f 81/90 82/91 310/328
f 310/328 82/91 309/327
f 309/327 82/91 311/329
f 82/91 83/92 311/329
f 311/329 83/92 312/330
f 312/330 83/92 313/331
f 83/92 84/93 313/331
f 84/93 88/98 313/331
f 88/98 314/332 313/331
f 313/331 314/332 312/330
f 312/330 314/332 92/333
f 92/333 314/332 91/334
f 314/332 315/335 91/334
f 91/334 315/335 89/99
f 89/99 315/335 88/98
f 315/335 314/332 88/98
f 93/106 115/133 75/107
f 115/133 116/134 75/107
f 116/134 92/333 75/107
f 75/107 92/333 76/336
f 116/134 316/337 92/333
f 92/333 316/337 317/338
f 316/337 116/134 317/338
f 317/338 116/134 318/339
f 318/339 116/134 319/340
f 116/134 117/135 319/340
f 319/340 117/135 318/339
f 318/339 117/135 128/146
f 128/146 117/135 320/341
f 117/135 118/136 320/341
f 320/341 118/136 128/146
f 128/146 129/147 318/339
f 318/339 129/147 321/342
f 129/147 291/309 321/342
f 321/342 291/309 322/343
f 322/343 291/309 323/344
f 291/309 293/311 323/344
f 293/311 309/327 323/344
f 323/344 309/327 322/343
f 309/327 311/329 322/343
f 311/329 312/330 322/343
f 322/343 312/330 317/338
f 312/330 92/333 317/338
f 322/343 317/338 321/342
f 321/342 317/338 318/339
f 307/325 324/345 81/90
f 81/90 324/345 80/89
f 324/345 325/346 80/89
f 80/89 325/346 64/72
f 64/72 325/346 63/71
f 325/346 326/347 63/71
f 63/71 326/347 101/119
f 101/119 326/347 304/322
f 326/347 325/346 304/322
f 325/346 324/345 304/322
f 304/322 324/345 305/323
f 324/345 307/325 305/323
f 293/311 327/348 306/324
f 306/324 327/348 301/319
f 301/319 327/348 297/315
f 297/315 327/348 294/312
f 327/348 293/311 294/312
f 138/156 328/349 289/307
f 289/307 328/349 288/306
f 288/306 328/349 178/196
f 328/349 329/350 178/196
f 329/350 330/351 178/196
f 178/196 330/351 150/168
f 330/351 329/350 150/168
f 150/168 329/350 151/169
f 329/350 331/352 151/169
f 151/169 331/352 140/158
f 331/352 329/350 140/158
f 329/350 328/349 140/158
f 140/158 328/349 139/157
f 328/349 138/156 139/157
f 43/47 332/353 27/31
f 27/31 332/353 28/32
f 332/353 333/354 28/32
f 28/32 333/354 31/35
f 333/354 334/355 31/35
f 31/35 334/355 33/37
f 334/355 335/356 33/37
f 335/356 336/357 33/37
f 33/37 336/357 34/38
f 34/38 336/357 337/358
f 337/358 336/357 338/359
f 338/359 336/357 339/360
f 336/357 335/356 339/360
f 339/360 335/356 340/361
f 340/361 335/356 341/362
f 335/356 334/355 341/362
f 341/362 334/355 342/363
f 334/355 333/354 342/363
f 333/354 332/353 342/363
f 342/363 332/353 343/364
f 332/353 43/47 343/364
f 43/47 42/46 343/364
f 343/364 42/46 344/365
f 344/365 42/46 345/366
f 42/46 39/43 345/366
f 39/43 35/39 345/366
f 345/366 35/39 346/367
f 346/367 35/39 347/368
f 35/39 34/38 347/368
f 34/38 337/358 347/368
f 347/368 337/358 348/369
f 348/369 337/358 349/370
f 337/358 338/359 349/370
f 349/370 338/359 350/371
f 338/359 339/360 350/371
f 350/371 339/360 351/372
f 351/372 339/360 352/373
f 339/360 340/361 352/373
f 352/373 340/361 353/374
f 353/374 340/361 354/375
f 340/361 341/362 354/375
f 354/375 341/362 355/376
f 341/362 342/363 355/376
f 342/363 343/364 355/376
f 343/364 344/365 355/376
f 344/365 356/377 355/376
f 355/376 356/377 354/375
f 356/377 357/378 354/375
f 354/375 357/378 353/374
f 353/374 357/378 358/379
f 358/379 357/378 359/380
f 359/380 357/378 346/367
f 357/378 356/377 346/367
f 346/367 356/377 345/366
f 356/377 344/365 345/366
f 346/367 347/368 359/380
f 347/368 348/369 359/380
f 348/369 349/370 359/380
f 359/380 349/370 358/379
f 349/370 360/381 358/379
f 358/379 360/381 353/374
f 360/381 361/382 353/374
f 353/374 361/382 352/373
f 352/373 361/382 362/383
f 361/382 360/381 362/383
f 362/383 360/381 363/384
f 363/384 360/381 364/385
f 360/381 349/370 364/385
f 349/370 350/371 364/385
f 364/385 350/371 365/386
f 365/386 350/371 366/387
f 350/371 351/372 366/387
f 351/372 352/373 366/387
f 366/387 352/373 367/388
f 352/373 362/383 367/388
f 367/388 362/383 368/389
f 368/389 362/383 369/390
f 362/383 363/384 369/390
f 369/390 363/384 370/391
f 370/391 363/384 371/392
f 363/384 364/385 371/392
f 364/385 365/386 371/392
f 371/392 365/386 370/391
f 370/391 365/386 372/393
f 365/386 366/387 372/393
f 372/393 366/387 373/394
f 366/387 367/388 373/394
f 373/394 367/388 374/395
f 367/388 368/389 374/395
f 374/395 368/389 375/396
f 375/396 368/389 376/397
f 368/389 369/390 376/397
f 376/397 369/390 377/398
f 369/390 370/391 377/398
f 370/391 372/393 377/398
f 377/398 372/393 378/399
f 372/393 373/394 378/399
f 378/399 373/394 379/400
f 373/394 374/395 379/400
f 379/400 374/395 380/401
f 374/395 375/396 380/401
f 380/401 375/396 381/402
f 375/396 376/397 381/402
f 381/402 376/397 382/403
f 376/397 377/398 382/403
f 382/403 377/398 383/404
f 383/404 377/398 384/405
f 377/398 378/399 384/405
f 384/405 378/399 385/406
f 378/399 379/400 385/406
f 379/400 380/401 385/406
f 385/406 380/401 386/407
f 380/401 381/402 386/407
f 381/402 382/403 386/407
f 382/403 383/404 386/407
f 383/404 384/405 386/407
f 386/407 384/405 385/406
f 21/23 387/408 11/11
f 11/11 387/408 9/9
f 387/408 388/409 9/9
f 9/9 388/409 8/8
f 388/409 389/410 8/8
f 8/8 389/410 6/6
f 389/410 390/411 6/6
f 390/411 391/412 6/6
f 6/6 391/412 5/5
f 5/5 391/412 18/20
f 391/412 392/413 18/20
f 18/20 392/413 20/22
f 392/413 393/414 20/22
f 393/414 394/415 20/22
f 20/22 394/415 21/23
f 21/23 394/415 387/408
f 394/415 395/416 387/408
f 395/416 396/417 387/408
f 396/417 397/418 387/408
f 387/408 397/418 388/409
f 397/418 398/419 388/409
f 388/409 398/419 389/410
f 398/419 399/420 389/410
f 389/410 399/420 390/411
f 399/420 400/421 390/411
f 390/411 400/421 391/412
f 391/412 400/421 392/413
f 400/421 401/422 392/413
f 392/413 401/422 393/414
f 401/422 402/423 393/414
f 393/414 402/423 394/415
f 394/415 402/423 395/416
f 402/423 403/424 395/416
f 403/424 404/425 395/416
f 395/416 404/425 396/417
f 404/425 405/426 396/417
f 405/426 406/427 396/417
f 396/417 406/427 397/418
f 406/427 407/428 397/418
f 397/418 407/428 398/419
f 407/428 408/429 398/419
f 398/419 408/429 399/420
f 408/429 409/430 399/420
f 399/420 409/430 400/421
f 400/421 409/430 401/422
f 409/430 410/431 401/422
f 401/422 410/431 402/423
f 402/423 410/431 403/424
f 410/431 411/432 403/424
f 411/432 412/433 403/424
f 403/424 412/433 404/425
f 412/433 413/434 404/425
f 404/425 413/434 405/426
f 405/426 413/434 406/427
f 413/434 414/435 406/427
f 406/427 414/435 407/428
f 414/435 415/436 407/428
f 407/428 415/436 408/429
f 415/436 416/437 408/429
f 408/429 416/437 409/430
f 409/430 416/437 410/431
f 410/431 416/437 411/432
f 411/432 416/437 417/438
f 416/437 415/436 417/438
f 417/438 415/436 418/439
f 418/439 415/436 419/440
f 415/436 414/435 419/440
f 414/435 413/434 419/440
f 419/440 413/434 420/441
f 420/441 413/434 421/442
f 413/434 412/433 421/442
f 412/433 411/432 421/442
f 421/442 411/432 422/443
f 411/432 417/438 422/443
f 417/438 423/444 422/443
f 422/443 423/444 421/442
f 423/444 424/445 421/442
f 421/442 424/445 420/441
f 420/441 424/445 425/446
f 425/446 424/445 426/447
f 426/447 424/445 427/448
f 424/445 423/444 427/448
f 427/448 423/444 428/449
f 428/449 423/444 429/450
f 423/444 417/438 429/450
f 429/450 417/438 430/451
f 417/438 418/439 430/451
f 418/439 419/440 430/451
f 430/451 419/440 431/452
f 419/440 420/441 431/452
f 420/441 425/446 431/452
f 425/446 426/447 431/452
f 426/447 432/453 431/452
f 431/452 432/453 430/451
f 432/453 433/454 430/451
f 430/451 433/454 429/450
f 433/454 434/455 429/450
f 429/450 434/455 428/449
f 428/449 434/455 435/456
f 435/456 434/455 436/457
f 436/457 434/455 437/458
f 434/455 433/454 437/458
f 437/458 433/454 438/459
f 433/454 432/453 438/459
f 438/459 432/453 439/460
f 432/453 426/447 439/460
f 426/447 427/448 439/460
f 439/460 427/448 440/461
f 427/448 428/449 440/461
f 428/449 435/456 440/461
f 440/461 435/456 441/462
f 435/456 436/457 441/462
f 441/462 436/457 442/463
f 442/463 436/457 443/464
f 436/457 437/458 443/464
f 437/458 438/459 443/464
f 443/464 438/459 444/465
f 438/459 439/460 444/465
f 444/465 439/460 445/466
f 445/466 439/460 446/467
f 439/460 440/461 446/467
f 440/461 441/462 446/467
f 441/462 442/463 446/467
f 446/467 442/463 445/466
f 445/466 442/463 444/465
f 442/463 443/464 444/465
f 3/468 10/469 447/470
f 447/470 10/469 448/471
f 10/469 7/472 448/471
f 448/471 7/472 449/473
f 7/472 4/474 449/473
f 449/473 4/474 450/475
f 4/474 3/468 450/475
f 3/468 447/470 450/475
f 450/475 447/470 451/476
f 447/470 448/471 451/476
f 448/471 449/473 451/476
f 451/476 449/473 450/475
f 1/477 2/478 452/479
f 2/478 15/480 452/479
f 15/480 453/481 452/479
f 452/479 453/481 1/477
f 453/481 454/482 1/477
f 1/477 454/482 14/483
f 14/483 454/482 455/484
f 455/484 454/482 456/485
f 454/482 453/481 456/485
f 456/485 453/481 457/486
f 453/481 15/480 457/486
f 15/480 14/483 457/486
f 14/483 455/484 457/486
f 457/486 455/484 456/485
f 16/487 458/488 22/489
f 458/488 459/490 22/489
f 22/489 459/490 19/491
f 459/490 460/492 19/491
f 19/491 460/492 17/493
f 460/492 461/494 17/493
f 17/493 461/494 16/487
f 16/487 461/494 458/488
f 461/494 462/495 458/488
f 458/488 462/495 459/490
f 459/490 462/495 460/492
f 462/495 461/494 460/492
f 37/496 24/497 463/498
f 463/498 24/497 464/499
f 24/497 26/500 464/499
f 464/499 26/500 465/501
f 26/500 29/502 465/501
f 465/501 29/502 466/503
f 29/502 37/496 466/503
f 37/496 463/498 466/503
f 466/503 463/498 467/504
f 463/498 464/499 467/504
f 464/499 465/501 467/504
f 467/504 465/501 466/503
f 23/505 468/506 25/507
f 25/507 468/506 46/508
f 46/508 468/506 469/509
f 468/506 23/505 469/509
f 469/509 23/505 470/510
f 23/505 47/511 470/510
f 470/510 47/511 471/512
f 471/512 47/511 472/513
f 47/511 46/508 472/513
f 46/508 469/509 472/513
f 472/513 469/509 473/514
f 469/509 470/510 473/514
f 470/510 471/512 473/514
f 473/514 471/512 472/513
f 40/515 474/516 45/517
f 474/516 475/518 45/517
f 45/517 475/518 44/519
f 475/518 476/520 44/519
f 44/519 476/520 41/521
f 476/520 477/522 41/521
f 41/521 477/522 40/515
f 40/515 477/522 474/516
f 477/522 478/523 474/516
f 474/516 478/523 475/518
f 475/518 478/523 476/520
f 478/523 477/522 476/520
f 479/524 481/525 480/526
f 480/526 481/525 482/527
f 482/527 481/525 483/528
f 481/525 479/524 483/528
f 484/529 486/530 485/531
f 485/531 486/530 487/532
f 487/532 486/530 488/533
f 486/530 484/529 488/533
f 489/534 491/535 490/536
f 490/536 491/535 492/537
f 492/537 491/535 493/538
f 491/535 489/534 493/538
f 494/539 496/540 495/541
f 495/541 496/540 497/542
f 497/542 496/540 498/543
f 496/540 494/539 498/543
f 499/544 501/545 500/546
f 500/546 501/545 502/547
f 502/547 501/545 503/548
f 501/545 499/544 503/548
f 504/549 506/550 505/551
f 505/551 506/550 507/552
f 507/552 506/550 508/553
f 506/550 504/549 508/553
f 509/554 511/555 510/556
f 510/556 511/555 512/557
f 512/557 511/555 513/558
f 511/555 509/554 513/558
f 514/559 516/560 515/561
f 515/561 516/560 517/562
f 517/562 516/560 518/563
f 516/560 514/559 518/563
f 519/564 521/565 520/566
f 520/566 521/565 522/567
f 522/567 521/565 523/568
f 521/565 519/564 523/568
f 524/569 526/570 525/571
f 525/571 526/570 527/572
f 527/572 526/570 528/573
f 526/570 524/569 528/573
f 529/574 531/575 530/576
f 530/576 531/575 532/577
f 532/577 531/575 533/578
f 531/575 529/574 533/578
f 534/579 536/580 535/581
f 535/581 536/580 537/582
f 537/582 536/580 538/583
f 536/580 534/579 538/583
f 539/584 541/585 540/586
f 540/586 541/585 542/587
f 542/587 541/585 543/588
f 541/585 539/584 543/588
f 544/589 546/590 545/591
f 545/591 546/590 547/592
f 547/592 546/590 548/593
f 546/590 544/589 548/593
f 549/594 551/595 550/596
f 550/596 551/595 552/597
f 552/597 551/595 553/598
f 551/595 549/594 553/598
f 283/599 218/600 554/601
f 218/600 154/602 554/601
f 554/601 154/602 555/603
f 154/602 284/604 555/603
f 555/603 284/604 556/605
f 284/604 283/599 556/605
f 556/605 283/599 557/606
f 283/599 554/601 557/606
f 557/606 554/601 558/607
f 554/601 555/603 558/607
f 555/603 559/608 558/607
f 558/607 559/608 557/606
f 559/608 560/609 557/606
f 560/609 561/610 557/606
f 557/606 561/610 556/605
f 556/605 561/610 555/603
f 561/610 562/611 555/603
f 555/603 562/611 559/608
f 562/611 563/612 559/608
f 559/608 563/612 560/609
f 563/612 564/613 560/609
f 560/609 564/613 561/610
f 561/610 564/613 562/611
f 564/613 563/612 562/611
f 149/614 148/615 565/616
f 565/616 148/615 566/617
f 148/615 147/618 566/617
f 566/617 147/618 567/619
f 147/618 299/620 567/619
f 567/619 299/620 568/621
f 299/620 296/622 568/621
f 296/622 295/623 568/621
f 568/621 295/623 567/619
f 295/623 292/624 567/619
f 567/619 292/624 566/617
f 292/624 290/625 566/617
f 566/617 290/625 565/616
f 290/625 130/626 565/616
f 565/616 130/626 569/627
f 130/626 176/628 569/627
f 569/627 176/628 570/629
f 176/628 174/630 570/629
f 570/629 174/630 571/631
f 174/630 173/632 571/631
f 173/632 171/633 571/631
f 571/631 171/633 570/629
f 171/633 169/634 570/629
f 570/629 169/634 569/627
f 169/634 149/614 569/627
f 569/627 149/614 565/616
f 572/635 574/636 573/637
f 573/637 574/636 575/638
f 575/638 574/636 576/639
f 574/636 572/635 576/639
f 577/640 579/641 578/642
f 578/642 579/641 580/643
f 580/643 579/641 581/644
f 579/641 577/640 581/644
f 582/645 584/646 583/647
f 583/647 584/646 585/648
f 585/648 584/646 586/649
f 584/646 582/645 586/649
f 587/650 589/651 588/652
f 588/652 589/651 590/653
f 590/653 589/651 591/654
f 589/651 587/650 591/654
f 592/655 594/656 593/657
f 593/657 594/656 595/658
f 595/658 594/656 596/659
f 594/656 592/655 596/659
f 597/660 599/661 598/662
f 598/662 599/661 600/663
f 600/663 599/661 601/664
f 599/661 597/660 601/664
f 602/665 604/666 603/667
f 603/667 604/666 605/668
f 605/668 604/666 606/669
f 604/666 602/665 606/669
f 607/670 609/671 608/672
f 608/672 609/671 610/673
f 610/673 609/671 611/674
f 609/671 607/670 611/674
f 612/675 614/676 613/677
f 613/677 614/676 615/678
f 615/678 614/676 616/679
f 614/676 612/675 616/679
f 617/680 619/681 618/682
f 618/682 619/681 620/683
f 620/683 619/681 621/684
f 619/681 617/680 621/684
f 622/685 624/686 623/687
f 623/687 624/686 625/688
f 625/688 624/686 626/689
f 624/686 622/685 626/689
f 627/690 629/691 628/692
f 628/692 629/691 630/693
f 630/693 629/691 631/694
f 629/691 627/690 631/694
f 632/695 634/696 633/697
f 633/697 634/696 635/698
f 635/698 634/696 636/699
f 634/696 632/695 636/699
f 637/700 639/701 638/702
f 638/702 639/701 640/703
f 640/703 639/701 641/704
f 639/701 637/700 641/704
f 642/705 644/706 643/707
f 643/707 644/706 645/708
f 645/708 644/706 646/709
f 644/706 642/705 646/709
f 160/710 647/711 156/712
f 156/712 647/711 152/713
f 647/711 648/714 152/713
f 152/713 648/714 136/715
f 648/714 649/716 136/715
f 136/715 649/716 160/710
f 649/716 650/717 160/710
f 160/710 650/717 647/711
f 650/717 651/718 647/711
f 647/711 651/718 648/714
f 648/714 651/718 652/719
f 651/718 650/717 652/719
f 652/719 650/717 653/720
f 653/720 650/717 654/721
f 650/717 649/716 654/721
f 649/716 648/714 654/721
f 654/721 648/714 655/722
f 648/714 652/719 655/722
f 655/722 652/719 656/723
f 652/719 653/720 656/723
f 656/723 653/720 657/724
f 653/720 654/721 657/724
f 654/721 655/722 657/724
f 657/724 655/722 656/723
f 658/725 660/726 659/727
f 659/727 660/726 661/728
f 660/726 662/729 661/728
f 661/728 662/729 663/730
f 662/729 664/731 663/730
f 664/731 665/732 663/730
f 665/732 666/733 663/730
f 666/733 667/734 663/730
f 667/734 668/735 663/730
f 663/730 668/735 661/728
f 668/735 669/736 661/728
f 661/728 669/736 659/727
f 669/736 670/737 659/727
f 670/737 671/738 659/727
f 659/727 671/738 658/725
f 658/725 671/738 672/739
f 671/738 670/737 672/739
f 672/739 670/737 673/740
f 670/737 674/741 673/740
f 673/740 674/741 675/742
f 675/742 674/741 676/743
f 676/743 674/741 677/744
f 677/744 674/741 678/745
f 674/741 670/737 678/745
f 670/737 669/736 678/745
f 669/736 679/746 678/745
f 678/745 679/746 677/744
f 677/744 679/746 680/747
f 680/747 679/746 681/748
f 679/746 669/736 681/748
f 669/736 668/735 681/748
f 681/748 668/735 682/749
f 668/735 667/734 682/749
f 682/749 667/734 683/750
f 667/734 666/733 683/750
f 666/733 673/740 683/750
f 673/740 675/742 683/750
f 683/750 675/742 682/749
f 675/742 684/751 682/749
f 682/749 684/751 681/748
f 684/751 685/752 681/748
f 681/748 685/752 680/747
f 680/747 685/752 686/753
f 686/753 685/752 687/754
f 685/752 684/751 687/754
f 687/754 684/751 688/755
f 684/751 675/742 688/755
f 675/742 676/743 688/755
f 676/743 689/756 688/755
f 688/755 689/756 687/754
f 689/756 690/757 687/754
f 687/754 690/757 686/753
f 690/757 691/758 686/753
f 691/758 692/759 686/753
f 686/753 692/759 680/747
f 680/747 692/759 693/760
f 693/760 692/759 694/761
f 694/761 692/759 695/762
f 692/759 691/758 695/762
f 695/762 691/758 696/763
f 696/763 691/758 697/764
f 691/758 690/757 697/764
f 697/764 690/757 698/765
f 690/757 689/756 698/765
f 698/765 689/756 699/766
f 689/756 676/743 699/766
f 699/766 676/743 700/767
f 700/767 676/743 701/768
f 676/743 677/744 701/768
f 677/744 680/747 701/768
f 680/747 693/760 701/768
f 701/768 693/760 702/769
f 693/760 694/761 702/769
f 702/769 694/761 703/770
f 694/761 695/762 703/770
f 703/770 695/762 704/771
f 704/771 695/762 705/772
f 695/762 696/763 705/772
f 696/763 706/773 705/772
f 706/773 707/774 705/772
f 705/772 707/774 704/771
f 707/774 708/775 704/771
f 708/775 709/776 704/771
f 704/771 709/776 703/770
f 709/776 710/777 703/770
f 703/770 710/777 702/769
f 702/769 710/777 711/778
f 711/778 710/777 712/779
f 710/777 713/780 712/779
f 713/780 714/781 712/779
f 714/781 715/782 712/779
f 715/782 716/783 712/779
f 712/779 716/783 711/778
f 716/783 717/784 711/778
f 717/784 718/785 711/778
f 711/778 718/785 702/769
f 702/769 718/785 701/768
f 718/785 717/784 701/768
f 701/768 717/784 700/767
f 717/784 719/786 700/767
f 700/767 719/786 699/766
f 719/786 720/787 699/766
f 699/766 720/787 698/765
f 720/787 721/788 698/765
f 698/765 721/788 697/764
f 721/788 722/789 697/764
f 697/764 722/789 696/763
f 696/763 722/789 723/790
f 722/789 721/788 723/790
f 723/790 721/788 724/791
f 724/791 721/788 725/792
f 721/788 720/787 725/792
f 725/792 720/787 726/793
f 726/793 720/787 727/794
f 720/787 719/786 727/794
f 719/786 717/784 727/794
f 717/784 716/783 727/794
f 716/783 728/795 727/794
f 727/794 728/795 726/793
f 728/795 729/796 726/793
f 729/796 730/797 726/793
f 726/793 730/797 725/792
f 725/792 730/797 724/791
f 724/791 730/797 731/798
f 731/798 730/797 732/799
f 730/797 733/800 732/799
f 733/800 734/801 732/799
f 732/799 734/801 731/798
f 731/798 734/801 728/795
f 728/795 734/801 729/796
f 734/801 735/802 729/796
f 729/796 735/802 730/797
f 730/797 735/802 733/800
f 735/802 734/801 733/800
f 728/795 716/783 731/798
f 731/798 716/783 724/791
f 716/783 715/782 724/791
f 715/782 736/803 724/791
f 724/791 736/803 723/790
f 736/803 706/773 723/790
f 723/790 706/773 696/763
f 673/740 666/733 672/739
f 666/733 665/732 672/739
f 665/732 737/804 672/739
f 672/739 737/804 658/725
f 658/725 737/804 738/805
f 738/805 737/804 739/806
f 739/806 737/804 740/807
f 737/804 665/732 740/807
f 740/807 665/732 741/808
f 665/732 664/731 741/808
f 741/808 664/731 742/809
f 742/809 664/731 743/810
f 743/810 664/731 744/811
f 664/731 662/729 744/811
f 662/729 745/812 744/811
f 744/811 745/812 743/810
f 743/810 745/812 746/813
f 746/813 745/812 747/814
f 747/814 745/812 748/815
f 745/812 662/729 748/815
f 662/729 660/726 748/815
f 660/726 658/725 748/815
f 748/815 658/725 749/816
f 658/725 738/805 749/816
f 738/805 747/814 749/816
f 749/816 747/814 748/815
f 738/805 739/806 747/814
f 747/814 739/806 750/817
f 750/817 739/806 751/818
f 739/806 740/807 751/818
f 751/818 740/807 752/819
f 740/807 741/808 752/819
f 741/808 742/809 752/819
f 752/819 742/809 753/820
f 742/809 743/810 753/820
f 753/820 743/810 754/821
f 743/810 746/813 754/821
f 754/821 746/813 755/822
f 746/813 747/814 755/822
f 747/814 750/817 755/822
f 755/822 750/817 754/821
f 754/821 750/817 756/823
f 750/817 751/818 756/823
f 751/818 752/819 756/823
f 752/819 753/820 756/823
f 756/823 753/820 754/821
f 736/803 713/780 706/773
f 713/780 710/777 706/773
f 706/773 710/777 757/824
f 710/777 709/776 757/824
f 757/824 709/776 758/825
f 709/776 708/775 758/825
f 758/825 708/775 759/826
f 708/775 707/774 759/826
f 707/774 760/827 759/826
f 759/826 760/827 758/825
f 758/825 760/827 761/828
f 760/827 707/774 761/828
f 761/828 707/774 757/824
f 707/774 706/773 757/824
f 757/824 758/825 761/828
f 736/803 762/829 713/780
f 713/780 762/829 714/781
f 714/781 762/829 763/830
f 762/829 736/803 763/830
f 763/830 736/803 764/831
f 736/803 715/782 764/831
f 715/782 714/781 764/831
f 764/831 714/781 763/830
f 765/832 767/833 766/834
f 766/834 767/833 768/835
f 767/833 769/836 768/835
f 769/836 770/837 768/835
f 768/835 770/837 766/834
f 766/834 770/837 771/838
f 770/837 772/839 771/838
f 771/838 772/839 773/840
f 773/840 772/839 774/841
f 774/841 772/839 775/842
f 772/839 770/837 775/842
f 775/842 770/837 776/843
f 770/837 769/836 776/843
f 769/836 777/844 776/843
f 777/844 778/845 776/843
f 778/845 779/846 776/843
f 776/843 779/846 775/842
f 779/846 780/847 775/842
f 775/842 780/847 774/841
f 774/841 780/847 781/848
f 780/847 782/849 781/848
f 781/848 782/849 783/850
f 782/849 784/851 783/850
f 783/850 784/851 785/852
f 785/852 784/851 786/853
f 786/853 784/851 787/854
f 784/851 782/849 787/854
f 782/849 780/847 787/854
f 787/854 780/847 788/855
f 788/855 780/847 789/856
f 780/847 779/846 789/856
f 789/856 779/846 790/857
f 790/857 779/846 791/858
f 779/846 778/845 791/858
f 791/858 778/845 792/859
f 778/845 777/844 792/859
f 792/859 777/844 793/860
f 793/860 777/844 794/861
f 777/844 769/836 794/861
f 794/861 769/836 795/862
f 769/836 767/833 795/862
f 795/862 767/833 796/863
f 767/833 797/864 796/863
f 796/863 797/864 798/865
f 798/865 797/864 799/866
f 797/864 767/833 799/866
f 767/833 765/832 799/866
f 765/832 800/867 799/866
f 800/867 801/868 799/866
f 799/866 801/868 798/865
f 798/865 801/868 802/869
f 802/869 801/868 803/870
f 803/870 801/868 804/871
f 801/868 800/867 804/871
f 800/867 805/872 804/871
f 804/871 805/872 803/870
f 803/870 805/872 806/873
f 806/873 805/872 807/874
f 807/874 805/872 794/861
f 794/861 805/872 793/860
f 805/872 800/867 793/860
f 793/860 800/867 808/875
f 800/867 765/832 808/875
f 765/832 766/834 808/875
f 766/834 771/838 808/875
f 771/838 809/876 808/875
f 808/875 809/876 793/860
f 793/860 809/876 792/859
f 792/859 809/876 791/858
f 809/876 810/877 791/858
f 791/858 810/877 790/857
f 790/857 810/877 811/878
f 810/877 812/879 811/878
f 812/879 813/880 811/878
f 813/880 814/881 811/878
f 811/878 814/881 790/857
f 790/857 814/881 789/856
f 789/856 814/881 788/855
f 788/855 814/881 815/882
f 814/881 813/880 815/882
f 815/882 813/880 816/883
f 816/883 813/880 817/884
f 813/880 812/879 817/884
f 817/884 812/879 818/885
f 812/879 781/848 818/885
f 818/885 781/848 819/886
f 819/886 781/848 820/887
f 781/848 783/850 820/887
f 783/850 821/888 820/887
f 820/887 821/888 819/886
f 819/886 821/888 822/889
f 822/889 821/888 823/890
f 823/890 821/888 824/891
f 821/888 783/850 824/891
f 783/850 785/852 824/891
f 824/891 785/852 825/892
f 825/892 785/852 826/893
f 785/852 786/853 826/893
f 826/893 786/853 827/894
f 827/894 786/853 828/895
f 828/895 786/853 829/896
f 786/853 787/854 829/896
f 787/854 788/855 829/896
f 788/855 815/882 829/896
f 829/896 815/882 830/897
f 815/882 816/883 830/897
f 830/897 816/883 831/898
f 831/898 816/883 832/899
f 816/883 817/884 832/899
f 832/899 817/884 833/900
f 817/884 818/885 833/900
f 818/885 819/886 833/900
f 833/900 819/886 834/901
f 819/886 822/889 834/901
f 834/901 822/889 835/902
f 835/902 822/889 836/903
f 822/889 837/904 836/903
f 836/903 837/904 838/905
f 837/904 839/906 838/905
f 838/905 839/906 840/907
f 840/907 839/906 832/899
f 832/899 839/906 831/898
f 839/906 837/904 831/898
f 837/904 841/908 831/898
f 841/908 842/909 831/898
f 831/898 842/909 830/897
f 842/909 828/895 830/897
f 830/897 828/895 829/896
f 842/909 841/908 828/895
f 841/908 843/910 828/895
f 828/895 843/910 827/894
f 843/910 844/911 827/894
f 827/894 844/911 826/893
f 844/911 845/912 826/893
f 826/893 845/912 825/892
f 825/892 845/912 846/913
f 846/913 845/912 847/914
f 845/912 844/911 847/914
f 844/911 848/915 847/914
f 847/914 848/915 846/913
f 846/913 848/915 849/916
f 848/915 844/911 849/916
f 849/916 844/911 850/917
f 844/911 843/910 850/917
f 850/917 843/910 824/891
f 824/891 843/910 851/918
f 851/918 843/910 852/919
f 843/910 841/908 852/919
f 841/908 837/904 852/919
f 852/919 837/904 853/920
f 837/904 822/889 853/920
f 822/889 823/890 853/920
f 853/920 823/890 854/921
f 854/921 823/890 851/918
f 823/890 824/891 851/918
f 824/891 825/892 850/917
f 825/892 846/913 850/917
f 850/917 846/913 849/916
f 833/900 834/901 832/899
f 832/899 834/901 840/907
f 834/901 835/902 840/907
f 835/902 855/922 840/907
f 840/907 855/922 838/905
f 838/905 855/922 856/923
f 856/923 855/922 857/924
f 855/922 835/902 857/924
f 835/902 836/903 857/924
f 857/924 836/903 858/925
f 836/903 838/905 858/925
f 838/905 859/926 858/925
f 858/925 859/926 857/924
f 857/924 859/926 856/923
f 859/926 838/905 856/923
f 781/848 812/879 774/841
f 774/841 812/879 773/840
f 812/879 810/877 773/840
f 773/840 810/877 771/838
f 810/877 809/876 771/838
f 854/921 851/918 860/927
f 851/918 852/919 860/927
f 852/919 861/928 860/927
f 860/927 861/928 854/921
f 854/921 861/928 862/929
f 861/928 852/919 862/929
f 852/919 853/920 862/929
f 862/929 853/920 854/921
f 807/874 794/861 863/930
f 794/861 795/862 863/930
f 863/930 795/862 864/931
f 795/862 796/863 864/931
f 796/863 798/865 864/931
f 798/865 865/932 864/931
f 865/932 866/933 864/931
f 864/931 866/933 863/930
f 866/933 867/934 863/930
f 863/930 867/934 807/874
f 807/874 867/934 806/873
f 867/934 868/935 806/873
f 806/873 868/935 803/870
f 868/935 869/936 803/870
f 803/870 869/936 802/869
f 869/936 870/937 802/869
f 802/869 870/937 798/865
f 798/865 870/937 865/932
f 870/937 869/936 865/932
f 865/932 869/936 871/938
f 869/936 868/935 871/938
f 868/935 867/934 871/938
f 867/934 866/933 871/938
f 871/938 866/933 865/932
